<?xml version="1.0" standalone="no"?>
<!DOCTYPE svg PUBLIC "-//W3C//DTD SVG 1.1//EN" "http://www.w3.org/Graphics/SVG/1.1/DTD/svg11.dtd" >
<svg xmlns="http://www.w3.org/2000/svg">
<metadata></metadata>
<defs>
<font id="dk_weltschmerzregular" horiz-adv-x="376" >
<font-face units-per-em="2048" ascent="1638" descent="-410" />
<missing-glyph horiz-adv-x="917" />
<glyph horiz-adv-x="2048" />
<glyph horiz-adv-x="2048" />
<glyph unicode="&#xd;" horiz-adv-x="2048" />
<glyph unicode=" "  horiz-adv-x="917" />
<glyph unicode="&#x09;" horiz-adv-x="917" />
<glyph unicode="&#xa0;" horiz-adv-x="917" />
<glyph unicode="!" horiz-adv-x="374" d="M63 98q0 41 31 70t74 29q44 0 75 -29t31 -70q0 -40 -31 -69t-75 -29q-43 0 -74 29t-31 69zM63 530v797q0 138 59 223.5t144 85.5q36 0 59 -22t23 -66q0 -52 -35 -123q-37 -32 -37 -338v-622q-9 -52 -34.5 -79.5t-59.5 -27.5q-47 0 -83 47t-36 125z" />
<glyph unicode="&#x22;" horiz-adv-x="616" d="M63 1530v6q6 45 38 71.5t81 26.5q39 -6 67.5 -36.5t31.5 -71.5v-13q-36 -325 -105 -325q-39 0 -76 144.5t-37 197.5zM334 1538v6q6 45 38 71.5t81 26.5q39 -6 67 -36.5t31 -71.5v-12q-36 -326 -105 -326q-39 0 -75.5 144.5t-36.5 197.5z" />
<glyph unicode="'" horiz-adv-x="315" d="M47 1530v6q6 45 38 71.5t81 26.5q39 -6 67 -36.5t31 -71.5v-13q-36 -325 -104 -325q-39 0 -76 144.5t-37 197.5z" />
<glyph unicode="(" horiz-adv-x="567" d="M39 688v23q4 90 18 183t44 191.5t71.5 174t104.5 124t139 48.5q41 0 67.5 -20t26.5 -60q0 -46 -94 -113q-90 -53 -139.5 -200t-49.5 -326q0 -178 57.5 -324t161.5 -209q46 -27 46 -86q0 -42 -25 -67t-61 -25h-11q-76 10 -145.5 86t-114 181t-70.5 217.5t-26 201.5z" />
<glyph unicode=")" horiz-adv-x="569" d="M59 1352q0 40 27 60t68 20q76 0 139 -48.5t104 -124t71 -174t44 -191.5t18 -183v-23q0 -89 -26 -201.5t-70.5 -217.5t-114 -181t-145.5 -86h-10q-36 0 -61 25t-25 67q0 60 45 86q104 63 161.5 209t57.5 324q0 179 -49 326t-139 200q-45 32 -70 58.5t-25 54.5z" />
<glyph unicode="+" horiz-adv-x="692" d="M27 723q0 84 63 96h158v174q0 22 38 32.5t66 10.5q85 0 97 -63v-154h157q26 0 43 -35t17 -67t-17 -67.5t-43 -35.5h-157v-157q0 -26 -35.5 -43t-67.5 -17t-65 16.5t-33 43.5v159l-178 2q-22 0 -32.5 38.5t-10.5 66.5z" />
<glyph unicode="," horiz-adv-x="319" d="M55 59q0 22 5 45t16 48t35 41t57 16q98 0 98 -137q0 -124 -42.5 -200.5t-84.5 -76.5q-31 0 -39 41l-43 203q-2 4 -2 20z" />
<glyph unicode="-" horiz-adv-x="792" d="M78 723q0 84 63 96h516q26 0 43 -35t17 -67t-17 -67.5t-43 -35.5l-536 4q-22 0 -32.5 38.5t-10.5 66.5z" />
<glyph unicode="." horiz-adv-x="313" d="M57 96q0 40 30 68.5t71 28.5t70.5 -28.5t29.5 -68.5t-29.5 -68t-70.5 -28t-71 28t-30 68z" />
<glyph unicode="/" horiz-adv-x="567" d="M18 25q0 6 5 26q281 1175 329 1352q27 31 107 31q34 0 62 -17.5t28 -32.5l-303 -1273q-20 -87 -31 -101q-7 -11 -20 -12h-142q-35 0 -35 27z" />
<glyph unicode="0" horiz-adv-x="1099" d="M66 750q0 77 3.5 138.5t15 135t31.5 129.5t55 111t82.5 90.5t117.5 57.5t157 22q79 0 144.5 -15t114.5 -39t87.5 -63.5t64.5 -79.5t44.5 -97t28.5 -106.5t15.5 -116.5t7 -118t1.5 -121q0 -130 -15.5 -234.5t-40 -175t-64 -122t-79 -80.5t-93 -45.5t-98.5 -21.5t-103 -5 q-98 0 -179.5 34.5t-134.5 89t-90 124.5t-53 139t-16 135q0 33 -2 111.5t-2 122.5zM268 639q0 -102 21 -181.5t52 -125t70.5 -74.5t72 -39t61.5 -10q61 0 108 15.5t77 45.5t49.5 65t29 84t13 92t3.5 99q0 258 -13 350q-24 170 -116 226q-51 31 -129 33q-59 0 -104.5 -11.5 t-76 -31t-51.5 -53t-32.5 -67.5t-18 -86t-8.5 -97.5t-4 -111.5q-2 -80 -4 -122z" />
<glyph unicode="1" horiz-adv-x="622" d="M6 1161q0 35 8 51.5t41 36.5q45 28 105 61t164.5 77.5t158.5 44.5q60 0 60 -50v-1333q0 -51 -113 -51t-113 51v1045q0 6 -14 6q-10 0 -78.5 -13.5t-109.5 -13.5q-109 0 -109 88z" />
<glyph unicode="2" horiz-adv-x="946" d="M63 27q0 16 13 24l2 6q45 54 257.5 341t244.5 327q90 114 90 233q0 110 -88 196.5t-199 86.5q-42 0 -114 -37t-101 -37q-37 0 -64.5 23.5t-27.5 58.5q0 44 33 79t86 55t110.5 30.5t114.5 11.5h10q127 0 233 -64.5t166 -172t60 -232.5q0 -106 -41 -198t-117 -187v2 q-122 -152 -188 -245t-71 -110l-5 -17h324q5 -5 18 -16.5t18.5 -18t13 -17.5t10.5 -24t3 -29q0 -34 -16 -63t-47 -37h-693q-15 0 -25 9.5t-10 21.5z" />
<glyph unicode="3" horiz-adv-x="1032" d="M59 209q0 40 35 77.5t72 37.5h6q47 -5 90 -33t91 -55.5t110 -30.5h22q63 0 113.5 20.5t81.5 54.5t52 71.5t31 79.5t13.5 70.5t3.5 51.5q0 76 -25 131t-62 85.5t-94.5 48.5t-109 23t-118.5 5q-35 0 -48.5 18.5t-13.5 57.5q0 37 28 81.5t61 78.5t61 70.5t28 59.5 q0 17 -2 27h-331q-66 0 -66 74v14q-2 27 -2 37q0 24 8.5 48t26.5 24h645q17 0 26 -24t9 -48q0 -31 -70 -143q-19 -39 -59 -107t-58 -88q90 -17 158.5 -58.5t106.5 -90t62.5 -110.5t32.5 -111.5t9 -102.5v-18q0 -120 -40 -221t-107.5 -168t-158 -104.5t-190.5 -37.5 q-212 0 -401 152q-27 21 -27 53z" />
<glyph unicode="4" horiz-adv-x="929" d="M8 356q3 23 23 64l487 956q10 27 40 43.5t65 16.5q37 0 63.5 -18t26.5 -52q0 -18 -13 -51q-58 -147 -187.5 -408.5t-180.5 -376.5h266v175q0 27 36 46t68 19q76 0 105 -65v-166q74 -59 74 -107t-13.5 -69t-60.5 -60v-242q-10 -40 -27.5 -52.5t-77.5 -12.5 q-46 0 -70.5 13.5t-33.5 51.5v256h-559q-9 0 -20 15.5t-11 23.5z" />
<glyph unicode="5" horiz-adv-x="1024" d="M51 156q0 63 18 79.5t74 16.5q54 0 127.5 -26.5t149.5 -26.5q74 0 132.5 17.5t94 49t60 66.5t36 78.5t15.5 76t4 66.5q0 54 -10.5 97t-27 72.5t-43.5 50.5t-54 32.5t-64.5 18t-69 8.5t-73.5 2h-94q-85 0 -124.5 16.5t-39.5 67.5v8q23 110 41.5 208.5t26 148t14.5 87.5 t11 50t11 12h512q27 0 27 -93q0 -64 -37 -84t-121 -20h-215q-5 -54 -12.5 -100.5t-12 -70t-4.5 -30.5q0 -10 9 -10h2q50 4 69 4q116 0 211 -37t155.5 -99.5t93 -143.5t32.5 -170v-17q-3 -107 -22 -192.5t-47 -143.5t-69.5 -101t-83 -67t-95.5 -38.5t-98 -18.5t-99 -4 q-31 0 -85.5 2t-76.5 2q-47 0 -105 22t-100.5 59.5t-42.5 74.5z" />
<glyph unicode="6" horiz-adv-x="1021" d="M49 575q0 109 57.5 262t136.5 283t166 222t142 92q41 0 80 -26.5t39 -66.5q0 -30 -33.5 -73.5t-87.5 -99t-76 -85.5h21q47 0 86 -3.5t90.5 -16t92 -33.5t82.5 -60t69.5 -92t45 -132.5t17.5 -178.5q0 -138 -30.5 -243t-77 -165t-111 -97.5t-122 -49.5t-120.5 -12 q-74 0 -136 12.5t-107 32t-80.5 52t-58.5 64t-40 77t-25.5 82t-13 87.5t-5.5 85t-1 83zM262 526q0 -90 20.5 -155.5t57 -100.5t78 -51t90.5 -16q51 0 95 18.5t82 57.5t59.5 108.5t21.5 163.5q0 84 -14.5 144t-37.5 95t-61 55t-75.5 26t-90.5 6q-32 0 -60.5 -7.5t-60 -31 t-53.5 -60.5t-36.5 -102t-14.5 -150z" />
<glyph unicode="7" horiz-adv-x="841" d="M53 1335q0 41 24.5 72t67.5 31h680l-471 -1395q-8 -23 -34.5 -35t-51.5 -12q-46 0 -83.5 22t-37.5 56q0 10 7 24l389 1131h-393q-45 0 -71 31.5t-26 74.5z" />
<glyph unicode="8" horiz-adv-x="1019" d="M55 504q0 110 50.5 226t138.5 179q-70 76 -70 224q0 124 86.5 212.5t237.5 88.5q154 0 246 -84t92 -250q0 -109 -70 -189q54 -25 92.5 -67t59 -86t32 -103.5t14.5 -105t3 -105.5q0 -95 -26.5 -172.5t-69 -127.5t-99 -83.5t-112.5 -48t-113 -14.5q-92 0 -166.5 17.5 t-124.5 46t-88 71t-59 85t-33.5 96t-16.5 97t-4 93.5zM270 457q0 -74 20 -127t55 -81.5t74.5 -41t86.5 -12.5q37 0 62 3t56 12t51.5 28.5t38.5 50.5t27 80.5t9 115.5q0 312 -232 312q-33 0 -62.5 -5.5t-65 -26t-60.5 -53.5t-42.5 -93.5t-17.5 -141.5v-20zM365 1104 q0 -107 106 -119h72q49 4 75.5 32t26.5 105q0 44 -13 73t-38 43t-52 19t-65 5q-44 0 -78 -34.5t-34 -111.5v-12z" />
<glyph unicode="9" horiz-adv-x="1021" d="M45 866q0 116 20.5 208.5t57.5 153t81.5 102.5t99 64t102.5 31t100 9q74 0 136 -12.5t107 -32t80.5 -52.5t58.5 -64.5t40 -77t25.5 -81.5t13 -87.5t5.5 -85.5t1 -83q0 -109 -57.5 -262t-136.5 -282.5t-166 -221.5t-142 -92q-41 0 -80 26t-39 66q0 29 32.5 72t87.5 100.5 t77 85.5q-3 0 -10.5 -1t-10.5 -1q-47 0 -86 3.5t-90.5 16t-92 34t-82.5 60.5t-69.5 92.5t-45 133t-17.5 178.5zM256 883q0 -84 14.5 -144t37.5 -95t61 -55t75.5 -26t90.5 -6q32 0 60.5 7.5t60 30.5t53.5 60t36.5 102t14.5 150q0 90 -20.5 155.5t-57 101t-78 51.5t-90.5 16 q-51 0 -95 -18.5t-82 -57.5t-59.5 -108.5t-21.5 -163.5z" />
<glyph unicode=":" horiz-adv-x="333" d="M68 96q0 40 29.5 68.5t70.5 28.5t70.5 -28.5t29.5 -68.5t-29.5 -68t-70.5 -28t-70.5 28t-29.5 68zM68 719q0 40 29.5 68t70.5 28t70.5 -28t29.5 -68t-29.5 -68t-70.5 -28t-70.5 28t-29.5 68z" />
<glyph unicode=";" horiz-adv-x="323" d="M59 59q0 22 5 45t16 48t35 41t57 16q98 0 98 -137q0 -124 -42.5 -200.5t-84.5 -76.5q-31 0 -39 41l-43 203q-2 4 -2 20zM59 719q0 40 30 68t71 28t70.5 -28t29.5 -68t-29.5 -68t-70.5 -28t-71 28t-30 68z" />
<glyph unicode="?" horiz-adv-x="702" d="M27 1374q0 51 13.5 95.5t43 84.5t83.5 63t128 23q84 0 148.5 -13.5t105.5 -40.5t68 -59t40.5 -77t18 -85t4.5 -93q0 -54 -21.5 -113t-43 -94.5t-62.5 -95.5q-50 -55 -88.5 -160t-38.5 -158q0 -157 -29 -236t-71 -79q-41 0 -73 68.5t-32 173.5q0 215 133 446q8 14 33 55.5 t35.5 61.5t26 53.5t22 63t6.5 59.5q0 135 -155 135q-101 0 -101 -72q0 -75 58 -75q12 0 20 2q32 0 51 -24.5t19 -57.5q0 -41 -22.5 -71t-65.5 -30q-116 0 -185 66.5t-69 183.5zM215 96q0 40 29.5 68.5t70.5 28.5t71 -28.5t30 -68.5t-30 -68t-71 -28t-70.5 28t-29.5 68z" />
<glyph unicode="@" horiz-adv-x="1525" d="M57 702q0 152 39.5 276t107 207.5t161 140.5t198.5 82.5t223 25.5q137 0 251.5 -37t196 -101.5t138.5 -153.5t84 -193.5t27 -219.5v-12q-7 -214 -51 -328q-16 -38 -99.5 -56t-185.5 -18q-71 0 -122.5 7.5t-51.5 17.5h-2q-10 0 -29 29.5t-24 29.5q-3 0 -12.5 -11.5 t-22.5 -25t-45 -25t-76 -11.5q-134 0 -218.5 85t-84.5 197t85 195.5t220 83.5q68 0 141 -25q0 82 -26 112t-117 30q-42 0 -100 -27v2q-47 -31 -82 -31q-33 0 -49.5 20t-16.5 50q0 31 14 53q137 80 240 80q158 0 246 -61.5t88 -167.5v-406h119q20 84 20 213q0 136 -56.5 250 t-160 182t-233.5 68q-151 0 -262.5 -70.5t-166.5 -188t-55 -265.5q0 -126 55.5 -237.5t163.5 -184.5t246 -78l-2 -205q-138 5 -256.5 49.5t-201 114t-141 159.5t-86.5 186t-28 193zM631 610q0 -58 39 -97.5t94 -39.5q40 0 74.5 29t52.5 73v70q-32 88 -123 94 q-137 -29 -137 -118v-11z" />
<glyph unicode="A" horiz-adv-x="1439" d="M35 111q0 17 6 32l598 1418q21 50 44 63.5t77 13.5q21 0 33 -1t25.5 -6t22 -15.5t15.5 -28.5l533 -1448q12 -18 12 -41q0 -39 -27.5 -68.5t-70.5 -29.5t-84.5 37t-71.5 117q-74 185 -109 254h-637l-108 -256q-31 -78 -73 -114t-83 -36q-42 0 -72 33t-30 76zM463 608h524 l-237 686z" />
<glyph unicode="B" horiz-adv-x="1349" d="M86 66v1474q0 72 60.5 87t312.5 15h2q86 0 130.5 -0.5t126 -5.5t127.5 -14t114 -27t107 -44.5t85.5 -67.5t70.5 -93t41 -124.5t17 -159.5q0 -108 -24.5 -200t-52 -138t-69 -104.5t-53.5 -79.5q-2 -4 -2 -15q0 -16 19 -34t46 -39t54.5 -47.5t46.5 -67.5t19 -90v-15 q0 -50 -13 -93.5t-41 -83t-79.5 -66t-120.5 -33.5q-29 0 -106 -0.5t-240 -1t-402 -0.5q-38 0 -65 2t-54.5 8.5t-42 21t-14.5 36.5zM305 203l563 -3q170 0 170 83q0 81 -56 129.5t-140 48.5h-537v-258zM305 655q17 0 104.5 -1t102.5 -1h39q101 0 176 11t140.5 39.5t107 76.5 t65 124.5t23.5 180.5q0 68 -15.5 122t-41 91t-65.5 64t-82 42.5t-99 24.5t-107.5 12t-115.5 3q-39 0 -116.5 -1t-115.5 -1v-787z" />
<glyph unicode="C" horiz-adv-x="1128" d="M49 805q0 72 10 145.5t35.5 157.5t65 158.5t103.5 144t145.5 119.5t196.5 80t251 30q16 0 34.5 -0.5t51.5 -4.5t57 -11t43 -20.5t19 -32.5q0 -119 -64 -119h-32q-5 0 -20 1t-23 1q-52 0 -103.5 -5.5t-118.5 -23t-124.5 -45t-115.5 -76.5t-98.5 -113.5t-66 -159.5 t-25.5 -210q0 -117 21.5 -210.5t69 -170t121 -127.5t181 -78.5t246.5 -27.5q72 0 106 -11.5t44 -34t10 -71.5q0 -63 -23.5 -77.5t-111.5 -14.5h-60q-150 0 -274.5 34t-208 87.5t-147.5 128t-100 148t-58.5 155t-29.5 141t-7 113.5z" />
<glyph unicode="D" horiz-adv-x="1200" d="M86 63v1522q0 47 131 47h35q9 0 26.5 1t26.5 1q178 0 334.5 -57.5t269 -158.5t177.5 -245.5t65 -310.5q0 -154 -29 -280.5t-78 -214.5t-121 -155t-149 -106.5t-172 -64t-180 -33t-182 -8.5q-32 0 -54.5 1.5t-48 7.5t-38.5 19.5t-13 34.5zM303 201q0 -27 66 -27 q118 0 217 39.5t165.5 104.5t113.5 150t68 173.5t21 177.5q0 129 -43 244t-123 204t-205.5 141t-279.5 52v-1259z" />
<glyph unicode="E" horiz-adv-x="1245" d="M86 125v1434q0 77 168 77h498q84 0 227 -8q15 -4 24 -26.5t9 -40.5v-21q0 -104 -51 -104l-664 -2v-787h657q33 3 44.5 17t11.5 41q0 7 -1 27t-1 30q0 21 9.5 34.5t27.5 19.5t33.5 7.5t37.5 1.5q86 0 86 -100q0 -68 -4.5 -109.5t-17 -77t-38 -53t-65.5 -27t-102 -9.5h-672 v-250l846 -2q32 -5 41.5 -28.5t9.5 -64.5q0 -65 -13 -86q-14 -20 -40 -20h-971q-37 0 -63.5 34t-26.5 93z" />
<glyph unicode="F" horiz-adv-x="1028" d="M86 45v1573q21 18 309 18q90 0 260.5 -2t223.5 -2q82 0 102 4h2q31 0 31 -90v-10q0 -27 -0.5 -41t-2.5 -34t-7.5 -29t-14.5 -9h-692l6 -766q6 0 19.5 1t19.5 1q89 0 245.5 -33.5t184.5 -33.5q20 0 31.5 21.5t17 47t24.5 47t52 21.5q119 0 119 -82q0 -69 -21 -118.5 t-55.5 -74t-70.5 -35.5t-74 -11q-54 0 -160.5 21.5t-147.5 21.5q-113 0 -184 -27v-373q0 -47 -102 -47q-2 0 -11.5 -1t-15.5 -1q-18 0 -51.5 14t-36.5 29z" />
<glyph unicode="G" horiz-adv-x="1265" d="M49 805q0 73 11 148t39 158t69.5 158t108.5 143.5t151 118.5t201 79.5t254 29.5q80 0 172 -12q41 -6 41 -67q0 -39 -18.5 -81t-45.5 -42q-6 0 -33 3t-47 3q-38 0 -78 -3.5t-91.5 -13t-99.5 -24.5t-100 -40.5t-97 -58.5t-85 -80.5t-68.5 -104.5t-45.5 -133.5t-17 -164.5 q0 -140 42.5 -255t125.5 -199.5t213 -130.5t297 -46h49v244h-157q-55 0 -86 31.5t-31 73.5q0 40 26 67t74 27h336q45 0 45 -66q0 -141 -4 -489q-64 -44 -126.5 -62t-180.5 -18q-141 0 -262 34t-205.5 88.5t-152 128t-108.5 149t-68 154.5t-37.5 141t-10.5 112z" />
<glyph unicode="H" horiz-adv-x="1134" d="M84 102v1483q0 45 90 45q119 0 119 -47l4 -921h545v776q0 116 20 154t94 38q44 0 70.5 -21.5t26.5 -62.5v-1460q0 -37 -24 -58.5t-49 -24.5l-24 -3q-13 0 -23.5 1t-27.5 8.5t-28.5 20t-20 38.5t-8.5 61q0 60 -3 105.5t-3 218.5h-539v-324q-3 -47 -9 -73t-21 -38.5 t-29.5 -15t-46.5 -2.5h-23q-43 0 -66.5 20t-23.5 82z" />
<glyph unicode="I" d="M84 59q0 1325 4 1540q22 35 102 35q42 0 73.5 -10t31.5 -27v-1470q0 -98 -4 -112q-5 -16 -19 -17h-143q-28 0 -36.5 16t-8.5 45z" />
<glyph unicode="J" horiz-adv-x="870" d="M45 319q0 131 66 196t159 65q27 0 52.5 -5t53.5 -20t48 -38t33.5 -62t13.5 -90q0 -41 -17.5 -59.5t-39.5 -18.5q-32 0 -53.5 14.5t-30.5 31.5t-24 31.5t-36 14.5q-39 0 -39 -70q0 -43 36.5 -73.5t84.5 -30.5q52 0 86.5 5.5t62 12.5t42.5 31t25 44t14 70.5t5 89.5t1 122 l-2 856l-385 2q-27 0 -44.5 22.5t-17.5 61.5q0 46 24.5 80t72.5 34h481q7 0 12.5 -0.5t17.5 -6.5t20 -17t14.5 -35t6.5 -57l3 -1174q0 -68 -15 -122.5t-37.5 -90t-58.5 -60.5t-68.5 -38t-79 -20.5t-77.5 -9t-74 -1.5h-39q-133 0 -215 76.5t-82 238.5z" />
<glyph unicode="K" horiz-adv-x="1220" d="M84 31v1560q11 45 104 45q41 0 71 -11t30 -30v-526q0 -78 12 -78l688 611q25 22 64 22q45 0 84 -29t39 -65q0 -25 -23 -51l-725 -660q354 -481 496 -663q17 -23 20 -29q17 -34 17 -59q0 -68 -97 -68q-69 0 -112 49l-461 594l8 -598q0 -49 -94 -49q-45 0 -83 11t-38 24z " />
<glyph unicode="L" horiz-adv-x="800" d="M86 1178q0 110 1 257.5t1 168.5q5 30 96 30q40 0 75.5 -7.5t35.5 -16.5v-1405h258q61 0 96 -1t65 -5.5t43 -10t22 -19.5t10.5 -28.5t1.5 -42.5v-12v-14v-14.5t-1 -15t-2.5 -13.5t-3.5 -12.5t-5 -9.5t-7.5 -7t-9.5 -2h-629q-28 0 -36.5 16t-8.5 45q0 105 -1 509t-1 610z " />
<glyph unicode="M" horiz-adv-x="1505" d="M84 1575q0 32 37.5 48.5t91.5 16.5q46 0 86.5 -12.5t48.5 -34.5l420 -1056q375 1037 375 1030q8 37 55 54t107 17q46 0 78 -8.5t32 -23.5l6 -1547q0 -26 -15.5 -39.5t-33 -16.5t-45.5 -3h-31q-24 0 -51.5 7t-27.5 22l-7 1097l-438 -1118l-483 1112l16 -964 q0 -42 -1 -66.5t-5.5 -44t-9.5 -28t-19 -14.5t-27 -6.5t-40 -0.5q-82 0 -101 17q-6 6 -8 14z" />
<glyph unicode="N" horiz-adv-x="1191" d="M82 1573q0 32 27.5 48.5t68.5 16.5q45 0 68 -20l657 -565l-2 487q0 44 20.5 68t88.5 24t87 -13q12 -11 13 -26l2 -1546q0 -29 -14.5 -39t-50.5 -10q-96 0 -118 8q-22 7 -22 23v749l-608 508l2 -1202q0 -60 -19 -73t-92 -13h-26q-73 0 -80 27z" />
<glyph unicode="O" horiz-adv-x="1357" d="M59 803q0 174 34 315t93 236.5t140 160.5t172.5 94t193.5 29q148 0 265 -64t190 -175t111 -255t38 -310v-15q-1 -150 -21.5 -272.5t-66 -225.5t-115 -173t-172 -109t-233.5 -39q-126 0 -232 48t-178 127.5t-122.5 184t-73.5 216.5t-23 227zM270 821q0 -112 27.5 -220.5 t77 -197t128 -143.5t171.5 -55q209 0 309 154t100 493q0 156 -48.5 288.5t-138.5 213t-202 80.5q-131 0 -229 -84t-146.5 -221.5t-48.5 -307.5z" />
<glyph unicode="P" horiz-adv-x="1398" d="M84 1483q0 84 16 114.5t56 30.5q18 0 49.5 2t46.5 2q118 0 210 -2.5t192.5 -10t177 -20.5t154.5 -34t134.5 -50.5t107 -71.5t81.5 -94.5t49 -121t18 -150.5q0 -119 -27 -216t-74 -166t-118.5 -120.5t-151.5 -83.5t-183 -51.5t-203 -26.5t-220 -7q-63 0 -96 2l-4 -306 q-1 -52 -28.5 -76t-61.5 -24q-40 0 -77.5 20t-37.5 39zM299 629h193q73 0 135.5 4t132.5 15t125.5 30t108 51t87 74.5t55.5 104t21 136.5v25q-2 57 -19 103.5t-43 80t-66.5 59.5t-81.5 42t-96.5 27.5t-104.5 17t-112 8.5t-111 3.5t-111 1.5t-103 3h-10v-786z" />
<glyph unicode="Q" horiz-adv-x="1509" d="M63 807q0 174 32.5 314.5t89 236t135 159.5t168.5 92.5t192 28.5q119 0 217.5 -50.5t164.5 -133t111.5 -192t66 -225t20.5 -234.5q0 -303 -95 -500l66 -59q13 -8 29 -8q23 0 43 30l20 33q26 37 49 37q28 0 61 -36t33 -71q0 -46 -34 -92q-100 -139 -197 -139 q-38 0 -74 20.5t-80 61.5l-47 43q-136 -123 -358 -123q-220 0 -322 84q-154 124 -222.5 315t-68.5 408zM258 821q0 -112 27.5 -220.5t77 -197t128 -143.5t171.5 -55q137 0 221 63l-168 162v4q-37 37 -37 80q0 39 31 67.5t73 28.5q45 0 80 -35l1.5 -1.5t2.5 -2t5 -4t8.5 -7 t12.5 -10.5t18 -16t24 -22t31.5 -29t40.5 -37q55 149 55 408q0 156 -46 287.5t-133.5 212t-199.5 80.5q-131 0 -229 -84t-146.5 -221.5t-48.5 -307.5z" />
<glyph unicode="R" horiz-adv-x="1755" d="M88 993q0 226 2.5 351t10.5 193t19 85.5t32 17.5l655 -4q89 -1 163.5 -13.5t130 -32.5t99.5 -51t74 -63.5t51.5 -75t33.5 -80t19 -84.5t9 -83t2 -80q0 -67 -9.5 -125.5t-22.5 -101.5t-40.5 -85.5t-49 -69t-63.5 -62.5t-68 -55t-79.5 -56.5t-81.5 -58.5q31 -43 50 -67.5 t50.5 -62t59 -59t62.5 -44t73.5 -32.5t81.5 -10q84 0 133 38.5t49 121.5q0 127 -86 127q-40 0 -56 -27.5t-15 -60.5t-13 -60.5t-49 -27.5q-40 0 -69 41t-29 84q0 80 57.5 138t136.5 58q146 0 221.5 -61t75.5 -211q0 -78 -25 -139.5t-64 -98t-91.5 -60.5t-102 -33t-100.5 -9 q-71 0 -138 22t-121 57t-106.5 77.5t-104.5 85.5t-104 78t-115.5 57t-129.5 22q-40 0 -112 -2t-99 -2l6 -297v-8q0 -64 -15 -78q-16 -16 -77 -16h-18.5h-22.5t-21.5 0.5t-21.5 2.5t-16.5 5t-12.5 8.5t-4 12.5q-4 844 -4 964zM307 1440l2 -852q1 0 2 1t2 1q14 0 92 -1t91 -1 q103 0 194 13.5t180.5 48t153.5 88.5t103.5 141t39.5 198q0 62 -7.5 110t-26.5 85.5t-43 64.5t-64 45.5t-82 30.5t-105.5 18.5t-126.5 8.5t-151 2q-36 0 -121 -1t-133 -1z" />
<glyph unicode="S" horiz-adv-x="884" d="M29 317q0 140 83 219.5t222 79.5q86 0 139 -70.5t53 -160.5q0 -56 -18 -81t-74 -25q-53 0 -68.5 12.5t-15.5 44.5v24q0 22 -15.5 43t-45.5 21q-23 0 -40.5 -44.5t-17.5 -70.5q0 -66 41 -91t115 -25q227 0 227 198q0 191 -163 397q-49 60 -80 105t-58.5 112.5t-27.5 129.5 q0 68 13 136t42.5 134t71.5 116.5t106 81.5t141 31h25q19 0 29.5 -1t23 -5t18.5 -12t10.5 -23t4.5 -37q0 -26 -6.5 -43.5t-25 -30.5t-30 -18.5t-42.5 -17.5h2q-30 -12 -45 -19t-38.5 -27t-35 -45.5t-20.5 -71t-9 -107.5q0 -61 22.5 -125t57 -116t74 -112.5t74 -115t57 -122 t22.5 -134.5q0 -55 -4 -98t-16 -91.5t-32.5 -85t-56.5 -71.5t-85 -57.5t-120.5 -36t-160.5 -13.5q-88 0 -153.5 28t-101 75.5t-52 101t-16.5 114.5z" />
<glyph unicode="T" horiz-adv-x="983" d="M25 1538q0 27 2 44.5t14 35.5t35 18h803q40 0 58.5 -35t18.5 -77q0 -30 -23 -62t-54 -32h-283v-1371q0 -35 -22.5 -47t-61.5 -12h-16h-8q-49 0 -65 12q-28 21 -28 99v1247q0 74 -8 74l-2 -2q-29 6 -94 6q-19 0 -55.5 -1t-53.5 -1q-77 0 -117 21t-40 83z" />
<glyph unicode="U" horiz-adv-x="1222" d="M59 1440q0 38 4 112v15q4 29 33 49t62 20q38 0 67 -20t29 -57q1 -130 14.5 -298.5t43.5 -355.5t70.5 -342t102 -256.5t131.5 -101.5q72 0 138.5 125.5t110 311.5t70 393t26.5 376q0 76 -7 158q6 29 37 47t72 18q40 0 69 -18.5t29 -54.5v-76q0 -164 -7.5 -313.5 t-25.5 -301t-46 -278.5t-71 -238t-98 -188t-130.5 -121.5t-164.5 -44.5q-91 0 -168 47.5t-133.5 128.5t-101.5 195t-73.5 240.5t-47.5 271t-27 281t-8 276.5z" />
<glyph unicode="V" horiz-adv-x="1298" d="M35 1565q2 38 24.5 54.5t83.5 16.5q73 0 103 -51q60 -179 113 -333.5t90 -261.5t68.5 -196.5t51.5 -144t36 -97.5t24.5 -64.5t14.5 -37.5t8.5 -24t4.5 -16l385 1108q1 4 3 10q25 74 40 88q16 17 70 18h29q34 0 57 -15.5t23 -47.5q0 -8 -48 -168.5t-123.5 -391.5 t-157.5 -458t-161 -387t-123 -160h-4q-22 12 -57.5 73t-76 153t-86.5 208.5t-91.5 241.5t-89.5 249.5t-81.5 235t-66 195.5t-45 133.5t-16.5 46.5q0 1 -1 11t-1 12z" />
<glyph unicode="W" horiz-adv-x="1771" d="M43 1546q0 44 23 66t81 22q71 0 101 -49q335 -910 446 -1184q0 -2 2 -4q35 113 99 303q-49 125 -98 255t-77 207.5t-72.5 201.5t-60.5 168q0 4 -1 9l-1 5q0 44 24 66t83 22q70 0 100 -49l209 -567l162 489q21 70 36 90q27 37 83 37q42 0 71 -21.5t29 -64.5 q0 -16 -35.5 -141.5t-97.5 -325t-125 -385.5q61 -161 101 -273q11 -30 12 -30q0 2 2 2q0 -2 2 -2l366 1114h-2q10 32 16.5 49t20 38t33.5 30.5t49 9.5q43 0 71.5 -21.5t28.5 -64.5q0 -23 -69 -253.5t-161 -508.5t-195.5 -515.5t-161.5 -262.5q-60 32 -219 393 q-139 -359 -216 -397q-129 69 -657 1528q0 4 -1 9z" />
<glyph unicode="X" horiz-adv-x="1605" d="M66 86q0 8 2 12q24 79 89.5 186.5t165.5 260.5t169 284q-373 654 -373 715q0 38 28.5 66t65.5 28q54 0 148.5 -150t242.5 -464q209 368 377 596q19 8 47 8q40 0 70 -22t30 -62q0 -22 -47.5 -107.5t-161.5 -279.5t-192 -332q144 -236 217 -364q5 -8 14 -24 q21 -35 32 -53.5t32.5 -50t38 -48.5t42 -39.5t50.5 -33.5t58 -19.5t69 -8.5q52 0 78 25t26 61q0 34 -22 60t-57 26q-26 0 -41 -8.5t-18.5 -19t-13 -19t-26.5 -8.5q-30 0 -46.5 27.5t-16.5 66.5q0 66 55 112t123 46q104 0 171.5 -68t76.5 -190q-3 -44 -10 -80.5t-18 -64 t-25 -50t-31 -37.5t-36 -27t-39 -18t-41.5 -11t-43 -5.5t-43.5 -1.5h-21.5h-21.5h-7.5h-7h-7.5h-17q-23 0 -41.5 2t-53 13t-66 30.5t-76.5 58t-88 91.5t-97 135.5t-108 185.5l-62 113q-179 -310 -279.5 -469.5t-127.5 -159.5q-71 0 -103 27t-32 59z" />
<glyph unicode="Y" horiz-adv-x="1218" d="M47 311v17q0 66 19.5 116.5t50.5 80.5t75 49t87.5 25.5t93.5 6.5q89 0 144.5 -69.5t55.5 -157.5q0 -51 -18.5 -74.5t-73.5 -23.5q-53 0 -67.5 10.5t-14.5 38.5v24q0 27 -19 51.5t-58 24.5q-27 0 -46.5 -14.5t-28.5 -37t-12.5 -41t-3.5 -34.5q0 -133 240 -133 q46 0 83.5 12.5t62.5 32.5t46 51t33 61t22.5 71t16 73.5t13.5 74.5t14 68q-109 188 -224 412t-179 363.5t-64 152.5q0 25 48 55.5t71 30.5q31 0 99.5 -100.5t141.5 -270.5l68 -145l111 -215l55 260l78 399q10 35 39 56.5t61 21.5q45 0 76 -21.5t31 -64.5q0 -32 -8 -72.5 t-22 -94.5t-18 -74q-19 -81 -63 -295.5t-88 -404t-90 -343.5q-22 -69 -52.5 -116t-68.5 -76.5t-96.5 -45t-121 -21t-155.5 -5.5q-94 0 -163 26.5t-106.5 72.5t-55 98.5t-19.5 113.5z" />
<glyph unicode="Z" horiz-adv-x="1095" d="M47 61q0 34 10 64q126 278 333 674.5t325 642.5q-410 0 -454 -2h-1q-41 0 -62.5 29.5t-21.5 70.5q0 39 18 68.5t46 29.5h678q10 0 18.5 -3t18.5 -17t12 -37v-6q0 -93 -165.5 -433t-484.5 -941h492q55 18 55 96q0 25 -2 39q0 33 22 50t54 17q35 0 62.5 -18.5t27.5 -48.5 v-10q0 -56 -1 -83.5t-5.5 -69t-14 -62t-27.5 -45.5t-45 -36.5t-66.5 -19.5t-92.5 -8l-694 -2q-35 0 -35 61z" />
<glyph unicode="\" horiz-adv-x="567" d="M18 1384q0 15 28.5 32.5t62.5 17.5q79 0 106 -31q57 -208 330 -1352q4 -16 4 -26q0 -27 -35 -27h-141q-18 1 -26 21t-22 79q-1 4 -1.5 7t-1.5 6z" />
<glyph unicode="_" horiz-adv-x="993" d="M78 -76q0 70 84 80h678q35 0 56.5 -29.5t21.5 -56.5t-21.5 -56.5t-56.5 -29.5l-705 4q-16 0 -28.5 11t-18 27t-8 29t-2.5 21z" />
<glyph unicode="a" horiz-adv-x="1267" d="M33 115q0 16 4 28l510 1209q20 49 43 63.5t78 14.5q42 0 64 -10t38 -48l451 -1229q10 -10 10 -39q0 -41 -31 -72.5t-76 -31.5q-33 0 -60.5 19t-51 58t-39.5 75.5t-40.5 96t-41.5 95.5h-514l-84 -205q-30 -67 -72.5 -102t-79.5 -35q-45 0 -76.5 34.5t-31.5 78.5zM446 559 h383q-164 484 -170 500z" />
<glyph unicode="b" horiz-adv-x="1202" d="M82 78v1253q6 34 52.5 57t116.5 32.5t119 12.5t97 3q62 0 108.5 -1.5t105.5 -7t103 -15.5t93.5 -27.5t85.5 -42t70 -61t55 -82t34 -107t13 -134.5q0 -76 -11.5 -138t-40 -121t-50.5 -93.5t-68 -101.5v-2q14 -15 48 -44.5t54 -50t37.5 -58t17.5 -81.5v-14q0 -98 -55 -169 t-178 -85h-90q-13 0 -184.5 -1t-360.5 -1q-37 0 -63.5 2.5t-53.5 10t-41 24.5t-14 43zM311 215q75 0 223.5 -2t223.5 -2h8q123 0 123 49q0 60 -42 94.5t-106 34.5h-430v-174zM311 596q8 0 31 -1t35 -1h121q102 0 173 14.5t127.5 52t83.5 106.5t27 173q0 74 -24 126.5t-61 82 t-96.5 46.5t-113.5 21.5t-129 4.5q-6 0 -59 -1t-115 -1v-623z" />
<glyph unicode="c" horiz-adv-x="1030" d="M47 700q0 64 8.5 128.5t31 138t57.5 139t91 126t128 104.5t173.5 70t221.5 26q20 0 45.5 -2.5t62.5 -9.5t61.5 -25.5t24.5 -44.5q0 -119 -71 -119q-17 0 -30 0.5t-19 0.5t-10.5 0.5t-6.5 0.5q-43 0 -86 -4.5t-97.5 -19t-102.5 -37t-95 -63t-80.5 -93t-54 -130 t-20.5 -171.5q0 -244 122.5 -372t401.5 -128q102 0 130 -24t28 -97q0 -64 -25 -80t-111 -16h-51q-132 0 -242 29.5t-183.5 76.5t-130 112t-88 129t-51.5 135t-26 122.5t-6 97.5z" />
<glyph unicode="d" horiz-adv-x="1079" d="M82 76v1286q0 21 20.5 41t59.5 20h6q25 2 76 2q126 0 237 -26.5t197 -74t153.5 -113t111 -145t66.5 -168t23 -183.5q-7 -107 -27 -196.5t-48.5 -157t-70 -122t-85.5 -91.5t-100.5 -64.5t-109 -43.5t-117.5 -25t-119.5 -12t-121.5 -3q-32 0 -54 2.5t-46.5 9.5t-37.5 23 t-13 41zM309 193h33q95 0 175.5 31.5t134.5 84t92 121t55.5 140.5t17.5 145q0 102 -33.5 193.5t-96 163t-160.5 115.5t-218 48v-1042z" />
<glyph unicode="e" horiz-adv-x="987" d="M86 0v1370q0 60 104 60h564q82 0 82 -115q0 -63 -19.5 -77.5t-101.5 -14.5h-127q-281 0 -281 -2l2 -650q41 -3 174 -23t211 -20q22 0 36 8.5t21.5 21t16 25t27 21t47.5 8.5q90 0 90 -100t-76 -151.5t-180 -51.5q-41 0 -143 24.5t-150 24.5q-44 0 -76 -14v-137h565 q43 0 43 -74v-49q0 -33 -9.5 -49t-43 -25.5t-100.5 -9.5h-676z" />
<glyph unicode="f" horiz-adv-x="933" d="M82 57v1342q22 33 311 33q64 0 198.5 -2.5t196.5 -2.5h68q19 0 30.5 -7t16 -24.5t5.5 -30.5t1 -41v-11v-27q0 -35 -10.5 -58.5t-30.5 -23.5h-565l6 -604q4 4 25 4q65 0 133.5 -15t118.5 -30.5t69 -15.5q22 0 36 18t20.5 40t27 40t54.5 18q118 0 118 -90 q0 -92 -56.5 -158.5t-149.5 -66.5q-51 0 -148 16.5t-147 16.5q-59 0 -101 -12v-299q-1 -32 -35.5 -50t-80.5 -18q-44 0 -77 15.5t-34 43.5z" />
<glyph unicode="g" horiz-adv-x="1132" d="M47 702q0 64 9.5 130t33.5 139t60.5 138t95 125.5t131.5 104t175 69.5t222 26h13q39 0 62 -1.5t57 -9t51.5 -28t17.5 -52.5q0 -54 -25.5 -89t-75.5 -35q-14 2 -40 2q-41 0 -84.5 -4.5t-100 -19t-107 -37t-100.5 -61.5t-85.5 -90t-58 -126.5t-22.5 -165.5 q0 -232 142.5 -373t410.5 -141h21v164h-111q-59 0 -91 32.5t-32 77.5q0 44 28 73.5t79 29.5h287q25 0 38 -13t16 -27.5t3 -37.5v-205q0 -33 -1 -108t-1 -113q-67 -42 -124.5 -60t-156.5 -18q-124 0 -229.5 29.5t-179.5 77.5t-133 112t-94.5 129.5t-59 134.5t-32.5 123t-9 98 z" />
<glyph unicode="h" horiz-adv-x="1024" d="M82 109v1253q0 65 98 65q123 0 123 -67l2 -758h420v637q0 111 21 149.5t98 38.5q46 0 73 -25.5t27 -72.5v-1235q0 -26 -10.5 -45t-25 -28t-29 -14t-25.5 -6l-10 -1q-15 0 -26 1t-29 8.5t-30 20.5t-21 39t-9 62q0 15 -2 91t-2 161h-414v-254q-4 -47 -10 -73t-21.5 -38.5 t-31 -15t-49.5 -2.5h-19q-47 0 -72.5 21t-25.5 88z" />
<glyph unicode="i" horiz-adv-x="378" d="M82 72q0 1128 4 1308q27 45 109 45q42 0 75 -14.5t33 -36.5v-1278q0 -58 -5.5 -76.5t-31.5 -21.5h-123q-37 0 -49 19t-12 55z" />
<glyph unicode="j" horiz-adv-x="804" d="M53 293q0 103 58.5 172.5t150.5 69.5q62 0 107 -29t45 -88q0 -43 -22 -73t-62 -30q-6 0 -20.5 2t-20.5 2q-33 0 -33 -34q0 -28 24 -48t56 -20q125 0 150.5 48t25.5 247l-2 702q-49 0 -150.5 1.5t-150.5 1.5q-34 0 -54 25.5t-20 66.5q0 49 25.5 83.5t75.5 34.5h407 q9 0 15.5 -0.5t20 -7t22.5 -18.5t16.5 -37.5t7.5 -60.5l2 -990q0 -62 -13.5 -111t-33.5 -81t-53 -55t-62 -34.5t-70.5 -18t-68.5 -8t-66 -1.5h-32q-124 0 -199.5 70t-75.5 219z" />
<glyph unicode="k" horiz-adv-x="1095" d="M82 47v1327q6 27 37.5 40t73.5 13q44 0 75 -14t31 -41v-471q200 170 526 467l29 25q31 24 68 24q48 0 87.5 -30.5t39.5 -69.5q0 -28 -23 -55l-604 -549q404 -544 409 -551l17 -21q18 -24 18 -63q0 -78 -102 -78q-76 0 -113 49l-348 453l4 -441q0 -65 -100 -65 q-46 0 -85.5 16t-39.5 35z" />
<glyph unicode="l" horiz-adv-x="729" d="M82 72v1306q5 47 102 47q44 0 80.5 -12.5t36.5 -30.5v-1165h195q12 0 37 1t38 1q33 0 55.5 -4.5t45 -17t34 -40t11.5 -69.5q0 -26 -1 -38t-4.5 -26.5t-12.5 -20t-25 -5.5h-533q-26 0 -39.5 11.5t-16.5 25t-3 37.5z" />
<glyph unicode="m" horiz-adv-x="1335" d="M82 1354q0 38 38 59t91 21q46 0 85.5 -15.5t49.5 -40.5l336 -841q277 768 297 813v-2l2 6l-2 -2q7 41 53 59.5t105 18.5q47 0 80.5 -14t33.5 -38l4 -1306q-1 -37 -34.5 -56.5t-79.5 -19.5q-38 0 -67.5 13.5t-35.5 35.5l-4 819l-348 -866l-385 864l10 -708v-51.5 t-3.5 -38.5t-5.5 -28.5t-12 -18t-16 -11.5t-24.5 -5.5t-31.5 -2.5h-42q-79 0 -88 41z" />
<glyph unicode="n" horiz-adv-x="1077" d="M82 1352q0 38 31 58t75 20q48 0 70 -25v2l520 -446q0 61 -1 182t-1 182q0 23 3.5 38t14 30.5t34.5 23.5t61 8q68 0 89 -16q18 -15 19 -39v-1309q0 -38 -16.5 -50.5t-58.5 -12.5h-11q-30 0 -46 1t-39.5 5t-34.5 14t-11 27v625l-471 393q0 -161 1 -484t1 -487 q0 -64 -20 -79t-96 -15h-21q-83 0 -90 41z" />
<glyph unicode="o" horiz-adv-x="1208" d="M57 702q0 150 30.5 273t82.5 206.5t123.5 140.5t151.5 82.5t169 25.5q105 0 193 -37t150.5 -101.5t105.5 -153.5t63.5 -192.5t20.5 -218.5v-12q-3 -715 -535 -715q-112 0 -206 41.5t-157 111t-107.5 161t-64.5 189.5t-20 199zM279 717q0 -124 36 -236t111 -188t174 -76 q166 0 246 124.5t80 401.5q0 125 -39 232t-110.5 172t-160.5 65q-105 0 -183 -67.5t-116 -178.5t-38 -249z" />
<glyph unicode="p" horiz-adv-x="1224" d="M80 1276v16q0 82 41 107.5t127 25.5q132 0 231 -4.5t201 -17.5t175 -35.5t139.5 -59.5t108 -88.5t67.5 -123.5t30 -164v-39q0 -101 -24.5 -182t-66.5 -138t-107 -99.5t-135 -67.5t-162.5 -40.5t-179 -20.5t-193.5 -5q-3 0 -11 1t-12 1l-4 -260q-1 -41 -31.5 -61.5 t-68.5 -20.5q-45 0 -81 21t-36 53zM305 555h141q84 0 155.5 8.5t145 32t124.5 61t83.5 101t32.5 147.5v23q-4 71 -41 124t-91 82.5t-132 48t-148.5 24t-156.5 5.5h-113v-657z" />
<glyph unicode="q" horiz-adv-x="1335" d="M61 702q0 189 43 332t119 228t172 126.5t209 41.5q105 0 192 -44t145 -116t98.5 -167.5t58.5 -196.5t18 -204q0 -256 -76 -417l39 -37q4 -2 11 -2q4 0 19 20t37.5 40t43.5 20q31 0 66.5 -36t35.5 -73q0 -40 -35 -90q-90 -129 -182 -129q-25 0 -51.5 12t-44.5 25t-49 39 l-27 22q-120 -96 -303 -96q-69 0 -151 19t-134 57q-131 110 -192.5 277t-61.5 349zM268 717q0 -91 21.5 -179.5t61 -160.5t101.5 -116t136 -44q96 0 153 35l-131 125v4q-28 30 -28 76q0 44 32.5 73t77.5 29q38 0 86 -39q1 -1 5.5 -4.5t26 -23t60.5 -56.5q37 129 37 309 q0 125 -36.5 231t-106.5 171t-158 65q-104 0 -182 -67.5t-117 -178.5t-39 -249z" />
<glyph unicode="r" horiz-adv-x="1294" d="M82 862q0 196 3 307.5t13 171.5t23 76.5t37 16.5l555 -7q100 0 180 -18t132.5 -45.5t91.5 -70t59.5 -83t32.5 -95t15 -95t3 -92.5q0 -59 -8.5 -110t-20 -88.5t-36 -75t-43 -60.5t-56 -55t-59 -48t-68.5 -49l-51 -36q34 -45 55.5 -71.5t55.5 -59.5t70.5 -51t76.5 -23 q40 -4 62 -35t22 -68q0 -94 -92 -94q-56 0 -134 33.5t-137.5 76t-75.5 70.5q-50 41 -76 60.5t-71 47t-89 39t-93 11.5q-42 0 -156 -4l4 -277q0 -61 -92 -61q-45 0 -87 15t-42 30q0 146 -2 435t-2 382zM315 541h134q84 0 158.5 11t147.5 38.5t125 70.5t84.5 112.5t32.5 158.5 q0 187 -105 246q-62 35 -208 40q-16 0 -53 1l-316 -2v-676z" />
<glyph unicode="s" horiz-adv-x="806" d="M29 291q0 129 76 201.5t202 72.5q48 0 73.5 -32.5t25.5 -77.5q0 -36 -21 -63t-57 -27q-8 2 -23 2q-63 0 -63 -82q0 -80 110 -80q172 0 172 149q0 159 -135 322q-42 52 -69 91.5t-50.5 99.5t-23.5 116q0 60 12 120.5t38.5 120t65 105t96.5 73.5t128 28h16q28 0 41.5 -1.5 t29 -9.5t21.5 -27t6 -51q0 -40 -16 -63.5t-39.5 -31t-51 -20.5t-51 -31t-39.5 -63.5t-16 -115.5q0 -59 27 -121.5t65.5 -118.5t76.5 -113t65 -125t27 -135q0 -58 -5 -102.5t-20 -94t-44.5 -84.5t-75 -64.5t-116 -44.5t-163.5 -15q-81 0 -140.5 25.5t-92 69.5t-47.5 93 t-15 105z" />
<glyph unicode="t" horiz-adv-x="897" d="M33 1323q0 21 1.5 35t7 32t20 27.5t36.5 9.5h680q46 0 66 -36t20 -80q0 -32 -26 -66.5t-60 -34.5h-219v-1138q0 -42 -23 -56t-63 -14h-41q-46 0 -65 22t-19 91v835q0 256 4 260l-196 2q-83 0 -103 18.5t-20 92.5z" />
<glyph unicode="u" horiz-adv-x="1095" d="M61 1239q0 23 5 96v15q6 32 36 54.5t64 22.5q41 0 71.5 -22.5t30.5 -65.5q0 -137 18.5 -320t52 -366.5t91 -309.5t125.5 -126q73 0 137 175.5t97.5 403t33.5 418.5q0 56 -4 138q6 32 38 52.5t75 20.5q42 0 72 -21t30 -61v-65q0 -141 -6.5 -269.5t-22 -259t-40 -239.5 t-62.5 -205t-86.5 -162.5t-115 -104.5t-146.5 -38t-148.5 41t-118 110.5t-89.5 167.5t-65 206.5t-42 233t-24 242.5t-7 238z" />
<glyph unicode="v" horiz-adv-x="1140" d="M29 1333v13q2 43 26.5 62t85.5 19q83 0 101 -47l325 -819l303 752q21 66 49 90t72 24q121 0 121 -75l-543 -1346z" />
<glyph unicode="w" horiz-adv-x="1554" d="M41 1329q0 49 24 72.5t87 23.5q70 0 102 -53q273 -738 356 -950l66 192q-33 82 -67.5 174t-56.5 152t-66 185.5t-68 191.5q0 3 -1 6t-1 6q0 49 24 72.5t84 23.5q75 0 107 -53l157 -426q102 323 140 401t98 78q45 0 76 -23.5t31 -70.5q0 -13 -29.5 -118.5t-83 -275.5 t-107.5 -327l74 -196l291 891q10 31 16.5 46t20.5 35.5t35 29.5t51 9q45 0 75.5 -23t30.5 -71q0 -20 -60 -217.5t-140 -436t-170.5 -443t-141.5 -226.5h-18q-56 30 -174 299q-109 -269 -182 -305q-130 66 -578 1315q0 3 -1 6t-1 6z" />
<glyph unicode="x" horiz-adv-x="1110" d="M70 98q0 2 1 6.5t1 6.5q24 70 80 162.5t136 218t136 231.5q-309 548 -309 604q0 40 30.5 71.5t71.5 31.5q21 0 32 -2.5t30.5 -19.5t37 -44t52 -87t74 -136.5t104.5 -204.5q202 341 305 475q21 8 53 8q44 0 75.5 -24t31.5 -68q0 -11 -7 -29t-23 -47.5t-31.5 -56.5 t-44 -75.5t-50.5 -86.5l-180 -315l344 -551q22 -37 22 -72q0 -43 -32 -66.5t-78 -23.5q-32 0 -76 23l-305 487q-140 -246 -227.5 -380t-118.5 -134q-38 0 -66.5 10t-42.5 26t-20 31.5t-6 30.5z" />
<glyph unicode="y" horiz-adv-x="1089" d="M49 287v12q1 66 22.5 118t57 83.5t78 48t86.5 16.5q64 0 98.5 -24.5t34.5 -69.5q0 -37 -25.5 -61.5t-76.5 -24.5q-45 0 -60.5 -29t-15.5 -80q0 -90 182 -90q37 0 67 11.5t50.5 35t35 48t25.5 61.5t17.5 64t14.5 67.5t13 61.5q-92 159 -189.5 350.5t-151.5 310t-54 129.5 q0 29 49.5 62.5t73.5 33.5q32 0 95 -88t130 -237q62 -140 121 -248l100 502q10 34 40.5 54.5t64.5 20.5q49 0 80.5 -23t31.5 -71l-245 -1091q-18 -63 -44.5 -106t-59 -69.5t-84.5 -40.5t-108 -19t-143 -5q-86 0 -148 24t-96 66.5t-49.5 90.5t-17.5 106z" />
<glyph unicode="z" horiz-adv-x="997" d="M57 76q0 32 9 59q102 222 269.5 545t270.5 539h-153t-101.5 -0.5t-55.5 -1t-29 -0.5h-9q-46 0 -69 30.5t-23 75.5q0 42 21 74.5t53 32.5h575q12 0 23 -3.5t24 -22t15 -50.5q0 -81 -137 -366.5t-396 -776.5h379q22 19 22 74v18q0 42 24.5 62t61.5 20q39 0 69 -21.5 t30 -56.5v-10q0 -70 -2 -104t-14 -78.5t-36.5 -64t-69.5 -34t-114 -14.5l-588 -2q-49 0 -49 76z" />
<glyph unicode="&#xa1;" horiz-adv-x="372" d="M27 88q0 56 34 125q37 32 37 338v623q9 52 35 79t60 27q47 0 82.5 -47t35.5 -125v-797q0 -138 -59.5 -224.5t-142.5 -86.5q-37 0 -59.5 22.5t-22.5 65.5zM100 1540q0 40 31.5 69t75.5 29q43 0 73.5 -29t30.5 -69q0 -41 -30.5 -69.5t-73.5 -28.5q-44 0 -75.5 28.5 t-31.5 69.5z" />
<glyph unicode="&#xa9;" horiz-adv-x="667" d="M49 1223q0 53 10 105t38 110t71.5 101.5t117.5 72t169 28.5q15 0 30 -1.5t41.5 -7t43 -20.5t16.5 -38q0 -46 -18 -69t-48 -23h-24q-1 0 -5 1t-6 1q-25 0 -49.5 -3.5t-55.5 -13t-57.5 -28t-49 -45t-35.5 -68.5t-13 -94q0 -119 60 -181.5t194 -62.5q72 0 91.5 -17t19.5 -73 q0 -52 -18.5 -66t-79.5 -14h-29q-76 0 -138.5 17t-104.5 44t-74 64.5t-50 74.5t-29 78t-14.5 71t-3.5 57z" />
<glyph unicode="&#xaa;" horiz-adv-x="774" d="M55 1100q0 112 85 195t220 83q72 0 142 -24q0 81 -26.5 111t-117.5 30q-42 0 -100 -27v2q-46 -30 -82 -30q-33 0 -49 19.5t-16 49.5q0 32 14 54q135 79 240 79q159 0 245 -61.5t88 -167.5v-584q-98 -2 -110 -2q-19 0 -33.5 16t-23.5 32t-17 16q-3 0 -12.5 -11.5 t-22.5 -25.5t-45 -25.5t-76 -11.5q-134 0 -218.5 85.5t-84.5 197.5zM227 1102q0 -58 39 -97.5t94 -39.5q40 0 74.5 29t52.5 73v70q-32 88 -122 94q-138 -29 -138 -119v-10z" />
<glyph unicode="&#xad;" horiz-adv-x="792" d="M78 723q0 84 63 96h516q26 0 43 -35t17 -67t-17 -67.5t-43 -35.5l-536 4q-22 0 -32.5 38.5t-10.5 66.5z" />
<glyph unicode="&#xba;" horiz-adv-x="851" d="M57 1223q0 103 30.5 184.5t82 131.5t115.5 75.5t135 25.5h24q347 -25 347 -419q0 -65 -10.5 -121t-35.5 -108.5t-64 -90t-100 -60t-139 -22.5q-163 0 -274 114.5t-111 289.5zM242 1229q0 -99 48.5 -171.5t135.5 -72.5q195 0 195 260q0 89 -45 159.5t-125 70.5 q-96 0 -152.5 -69.5t-56.5 -176.5z" />
<glyph unicode="&#xbf;" horiz-adv-x="702" d="M23 369q0 54 21.5 113t43 94.5t62.5 95.5q50 55 88 159.5t38 157.5q0 157 29.5 236.5t71.5 79.5q40 0 72 -68t32 -174q0 -216 -133 -447q-9 -15 -33 -55.5t-35 -61t-26.5 -53.5t-22 -62.5t-6.5 -59.5q0 -136 156 -136q100 0 100 72q0 76 -57 76q-13 0 -21 -2 q-32 0 -50.5 24.5t-18.5 57.5q0 41 22.5 70.5t65.5 29.5q116 0 185 -66.5t69 -183.5q0 -51 -13.5 -95.5t-43 -84.5t-83.5 -63t-128 -23q-72 0 -130 11t-98 29t-69 46.5t-45.5 58t-26.5 69.5t-13 75t-3 80zM287 1544q0 40 29.5 68t70.5 28t70.5 -28t29.5 -68t-29.5 -68 t-70.5 -28t-70.5 28t-29.5 68z" />
<glyph unicode="&#xc0;" horiz-adv-x="1417" d="M25 111q0 17 6 32l598 1418q21 50 44 63.5t77 13.5q21 0 33 -1t25.5 -6t22 -15.5t15.5 -28.5l532 -1448q13 -19 13 -41q0 -38 -28 -68t-71 -30q-96 0 -155 154q-74 185 -109 254h-637l-108 -256q-31 -78 -73 -114t-83 -36q-42 0 -72 33t-30 76zM453 608h524l-238 686z M575 1872q0 31 23.5 48t56.5 17q22 0 47 -12l25 -12l127 -92l-2 2q43 -25 43 -58q0 -21 -21.5 -35t-56.5 -14q-6 0 -41 11t-81.5 29t-83 50t-36.5 66z" />
<glyph unicode="&#xc1;" horiz-adv-x="1417" d="M25 111q0 17 6 32l598 1418q21 50 44 63.5t77 13.5q21 0 33 -1t25.5 -6t22 -15.5t15.5 -28.5l532 -1448q13 -19 13 -41q0 -38 -28 -68t-71 -30q-96 0 -155 154q-74 185 -109 254h-637l-108 -256q-31 -78 -73 -114t-83 -36q-42 0 -72 33t-30 76zM453 608h524l-238 686z M563 1769q0 33 43 58l-2 -2l127 92q2 0 12.5 6.5t27 12.5t32.5 6q33 0 56.5 -17.5t23.5 -48.5q0 -34 -36.5 -66t-83 -50t-81.5 -29t-41 -11q-35 0 -56.5 14t-21.5 35z" />
<glyph unicode="&#xc2;" horiz-adv-x="1435" d="M33 111q0 17 6 32l598 1418q21 50 44 63.5t77 13.5q21 0 33 -1t25.5 -6t22 -15.5t15.5 -28.5l532 -1448q13 -19 13 -41q0 -38 -28 -68t-71 -30q-96 0 -155 154q-74 185 -109 254h-637l-108 -256q-31 -78 -73 -114t-83 -36q-42 0 -72 33t-30 76zM438 1710q-2 51 320 342 q24 -23 65.5 -63.5t64 -62t54.5 -53.5t49.5 -51.5t35.5 -41t26 -36.5t8 -26v-2q0 -25 -27 -50.5t-47 -25.5q-18 0 -44.5 17.5t-56 44t-34.5 29.5q-21 22 -47.5 48t-40 40t-16.5 18l-62 -63q-8 -8 -24.5 -25.5t-26.5 -27.5l-25 -25t-25 -24t-22 -18.5t-21.5 -14t-17.5 -5.5 q-31 0 -58.5 30t-27.5 46zM461 608h524l-237 686z" />
<glyph unicode="&#xc3;" horiz-adv-x="1435" d="M33 111q0 17 6 32l598 1418q21 50 44 63.5t77 13.5q21 0 33 -1t25.5 -6t22 -15.5t15.5 -28.5l532 -1448q13 -19 13 -41q0 -38 -28 -68t-71 -30q-96 0 -155 154q-74 185 -109 254h-637l-108 -256q-31 -78 -73 -114t-83 -36q-42 0 -72 33t-30 76zM459 1825v45 q0 54 30.5 91.5t96.5 37.5q52 0 103.5 -27t85 -60t64.5 -60t46 -27q33 0 33 59q0 10 -1.5 32t-1.5 30q0 32 11 32h4q63 -1 81.5 -21t18.5 -73v-45q0 -54 -30.5 -91.5t-96.5 -37.5q-43 0 -88 27t-76.5 60t-69 60t-67.5 27q-31 0 -31 -59q0 -10 1 -32.5t1 -31.5q0 -30 -10 -30 h-4q-63 1 -81.5 21t-18.5 73zM461 608h524l-237 686z" />
<glyph unicode="&#xc4;" horiz-adv-x="1462" d="M45 111q0 17 6 32l598 1418q21 50 44 63.5t77 13.5q21 0 33 -1t25.5 -6t22 -15.5t15.5 -28.5l533 -1448q12 -18 12 -41q0 -39 -27.5 -68.5t-70.5 -29.5t-84.5 37t-71.5 117q-77 194 -108 254h-637l-109 -256q-31 -78 -73 -114t-83 -36q-42 0 -72 33t-30 76zM346 1548 q0 40 29.5 68.5t70.5 28.5t71 -28.5t30 -68.5t-30 -68t-71 -28t-70.5 28t-29.5 68zM473 608h524l-237 686zM973 1542q0 40 29.5 68t70.5 28t71 -28t30 -68t-30 -68t-71 -28t-70.5 28t-29.5 68z" />
<glyph unicode="&#xc5;" horiz-adv-x="1447" d="M33 111q0 17 6 32l592 1405q-44 29 -66 78t-22 103q0 108 63 163.5t154 55.5q103 0 157 -61.5t54 -157.5q0 -142 -88 -191l514 -1399q12 -18 12 -41q0 -37 -32.5 -67.5t-76.5 -30.5q-96 0 -155 154q-74 185 -109 254h-637l-108 -256q-31 -78 -73 -114t-83 -36 q-42 0 -72 33t-30 76zM461 608h524l-237 686zM690 1729q0 -33 18.5 -60t47.5 -27q34 0 49.5 22t15.5 73q0 33 -17 56.5t-44 23.5q-32 0 -51 -24.5t-19 -63.5z" />
<glyph unicode="&#xc6;" horiz-adv-x="1906" d="M43 111q0 17 6 32l598 1418q18 41 42 57t63 18h16q5 0 67 1t208.5 2t357.5 1q84 0 227 -8q15 -4 24 -26.5t9 -40.5v-21q0 -104 -51 -104l-664 -2v-787h658q33 3 44 17t11 41q0 7 -1 27t-1 30q0 21 9.5 34.5t27.5 19.5t33.5 7.5t37.5 1.5q86 0 86 -100q0 -68 -4.5 -109.5 t-17 -77t-38 -53t-65.5 -27t-102 -9.5h-672v-250l846 -2q32 -5 41.5 -28t9.5 -64q0 -66 -14 -87q-14 -19 -39 -20h-971q-37 0 -63.5 34t-26.5 93v279h-325l-109 -256q-31 -78 -73 -114t-83 -36q-42 0 -72 33t-30 76zM471 608h264v631z" />
<glyph unicode="&#xc7;" horiz-adv-x="1099" d="M39 805q0 72 10 145.5t35.5 157.5t65 158.5t103.5 144t145.5 119.5t196.5 80t251 30q16 0 34.5 -0.5t51.5 -4.5t57 -11t43 -20.5t19 -32.5q0 -119 -64 -119h-33q-6 0 -20.5 1t-22.5 1q-52 0 -103.5 -5.5t-118 -23t-124.5 -45t-115.5 -76.5t-98 -113.5t-66 -159.5 t-25.5 -210q0 -117 21.5 -210.5t69 -170t121 -127.5t181 -78.5t246.5 -27.5q72 0 106 -11.5t44 -34t10 -71.5q0 -63 -23.5 -77.5t-111.5 -14.5h-15q2 -20 2 -64q0 -137 -53 -227q-35 -53 -112 -86t-158 -33q-90 0 -152 40t-71 122v8q0 57 39.5 106.5t105.5 49.5 q48 0 88.5 -26.5t46.5 -65.5q0 -16 -11.5 -30t-29.5 -15q-112 -48 -112 -78q0 -14 30 -14q25 0 56.5 13t64 38t54.5 72t22 106q0 42 -12 94q-121 16 -221.5 58.5t-168 98t-119.5 127t-81 139.5t-47.5 142t-24.5 128.5t-6 103.5z" />
<glyph unicode="&#xc8;" horiz-adv-x="1198" d="M61 125v1434q0 77 168 77h498q84 0 227 -8q15 -4 24 -26.5t9 -40.5v-21q0 -104 -51 -104l-664 -2v-787h658q33 3 44 17t11 41q0 7 -1 27t-1 30q0 21 9.5 34.5t28 19.5t34 7.5t37.5 1.5q86 0 86 -100q0 -68 -4.5 -109.5t-17 -77t-38.5 -53t-66 -27t-102 -9.5h-671v-250 l845 -2q32 -5 42 -28.5t10 -64.5v-5q0 -21 -1 -33t-5.5 -30.5t-16.5 -28t-31 -9.5h-970q-37 0 -64 34t-27 93zM459 1905q0 31 23.5 48t56.5 17q22 0 47 -12l24 -12l127 -93l-2 2q43 -25 43 -57q0 -21 -21.5 -35t-56.5 -14q-6 0 -41 11t-81 29t-82.5 50t-36.5 66z" />
<glyph unicode="&#xc9;" horiz-adv-x="1196" d="M59 125v1434q0 77 168 77h498q84 0 227 -8q15 -4 24 -26.5t9 -40.5v-21q0 -104 -51 -104l-664 -2v-787h658q33 3 44 17t11 41q0 7 -1 27t-1 30q0 21 9.5 34.5t28 19.5t34 7.5t37.5 1.5q86 0 86 -100q0 -68 -4.5 -109.5t-17 -77t-38.5 -53t-66 -27t-102 -9.5h-672v-250 l846 -2q32 -5 42 -28.5t10 -64.5v-5q0 -21 -1 -33t-5.5 -30.5t-16.5 -28t-31 -9.5h-970q-37 0 -64 34t-27 93zM457 1802q0 33 43 58l-2 -2l127 92q2 0 12 6t26.5 12t32.5 6q33 0 56.5 -17t23.5 -48q0 -34 -36.5 -66t-82.5 -50t-81 -29t-41 -11q-35 0 -56.5 14t-21.5 35z" />
<glyph unicode="&#xca;" horiz-adv-x="1208" d="M66 125v1434q0 77 167 77h498q84 0 227 -8q15 -4 24 -26.5t9 -40.5v-21q0 -104 -51 -104l-664 -2v-787h658q33 3 44 17t11 41q0 7 -1 27t-1 30q0 21 9.5 34.5t28 19.5t34 7.5t37.5 1.5q86 0 86 -100q0 -68 -4.5 -109.5t-17 -77t-38.5 -53t-66 -27t-102 -9.5h-671v-250 l845 -2q32 -5 42 -28.5t10 -64.5v-5q0 -21 -1 -33t-5.5 -30.5t-16.5 -28t-31 -9.5h-970q-37 0 -63.5 34t-26.5 93zM260 1808q-2 51 320 342q25 -25 65.5 -64t64 -61.5t55 -53.5t49 -50.5t35.5 -41t26 -36.5t8 -26v-2q0 -25 -27 -50.5t-47 -25.5q-18 0 -44.5 17.5t-56.5 43.5 t-34 29l-48 48l-40 40t-17 18l-61 -63q-6 -7 -24.5 -25.5t-27 -27.5t-24 -25t-25.5 -24t-22 -17.5t-21.5 -14t-17.5 -5.5q-31 0 -58.5 29.5t-27.5 45.5z" />
<glyph unicode="&#xcb;" horiz-adv-x="1208" d="M70 125v1434q0 77 168 77h497q85 0 228 -8q15 -4 23.5 -26.5t8.5 -40.5v-21q0 -104 -51 -104l-663 -2v-787h657q33 3 44 17t11 41q0 7 -1 27t-1 30q0 21 9.5 34.5t28 19.5t34 7.5t37.5 1.5q86 0 86 -100q0 -68 -4.5 -109.5t-17 -77t-38.5 -53t-66 -27t-102 -9.5h-671 v-250l846 -2q32 -5 41.5 -28.5t9.5 -64.5v-5q0 -21 -1 -33t-5.5 -30.5t-16.5 -28t-31 -9.5h-970q-37 0 -63.5 34t-26.5 93zM287 1843q0 40 29.5 68t70.5 28t70.5 -28t29.5 -68t-29.5 -68t-70.5 -28t-70.5 28t-29.5 68zM618 1845q0 40 30 68.5t71 28.5t70.5 -28.5t29.5 -68.5 t-29.5 -68t-70.5 -28t-71 28t-30 68z" />
<glyph unicode="&#xcc;" d="M29 1905q0 31 23.5 48t56.5 17q22 0 47 -12l24 -12l127 -93l-2 2q43 -25 43 -57q0 -21 -21.5 -35t-56.5 -14q-6 0 -41 11t-81 29t-82.5 50t-36.5 66zM84 59q0 1325 4 1540q22 35 102 35q42 0 73.5 -10t31.5 -27v-1470q0 -98 -4 -112q-5 -16 -19 -17h-143q-28 0 -36.5 16 t-8.5 45z" />
<glyph unicode="&#xcd;" d="M29 1802q0 33 43 58l-2 -2l127 92q2 0 12 6t26.5 12t32.5 6q33 0 56.5 -17t23.5 -48q0 -34 -36.5 -66t-83 -50t-81.5 -29t-41 -11q-34 0 -55.5 14t-21.5 35zM84 59q0 1325 4 1540q22 35 102 35q42 0 73.5 -10t31.5 -27v-1470q0 -98 -4 -112q-5 -16 -19 -17h-143 q-28 0 -36.5 16t-8.5 45z" />
<glyph unicode="&#xce;" d="M-121 1829q-2 51 320 342q24 -23 65.5 -63.5t64 -62t54.5 -53.5t49.5 -51.5t35.5 -41t26 -36.5t8 -26v-2q0 -25 -27 -50.5t-47 -25.5q-18 0 -44.5 17.5t-56.5 43.5t-34 29q-21 22 -48 48.5t-40.5 40.5t-16.5 18l-61 -64q-6 -7 -24.5 -25.5t-27 -27.5t-24 -25t-25.5 -24 t-22 -17.5t-21.5 -14t-17.5 -5.5q-31 0 -58.5 30t-27.5 46zM84 59q0 1325 4 1540q22 35 102 35q42 0 73.5 -10t31.5 -27v-1470q0 -98 -4 -112q-5 -16 -19 -17h-143q-28 0 -36.5 16t-8.5 45z" />
<glyph unicode="&#xcf;" d="M-78 1843q0 40 30 68t71 28t70.5 -28t29.5 -68t-29.5 -68t-70.5 -28t-71 28t-30 68zM84 59q0 1325 4 1540q22 35 102 35q42 0 73.5 -10t31.5 -27v-1470q0 -98 -4 -112q-5 -16 -19 -17h-143q-28 0 -36.5 16t-8.5 45zM254 1845q0 40 29.5 68.5t70.5 28.5t71 -28.5t30 -68.5 t-30 -68t-71 -28t-70.5 28t-29.5 68z" />
<glyph unicode="&#xd1;" horiz-adv-x="1175" d="M74 1573q0 32 27.5 48.5t68.5 16.5q45 0 68 -20l657 -565l-2 487q0 21 3 35t13 28.5t33 21.5t59 7q69 0 88 -14q12 -10 13 -25l2 -1546q0 -29 -15 -39t-51 -10q-95 0 -117 8q-22 7 -22 23v749l-608 508l2 -1202q0 -60 -19 -73t-92 -13h-26q-73 0 -80 27zM303 1747v45 q0 54 30.5 91.5t96.5 37.5q52 0 103.5 -27t85 -60t64.5 -60t46 -27q33 0 33 59q0 11 -1 33t-1 29q0 33 10 33h4q63 -1 81.5 -21.5t18.5 -73.5v-45q0 -54 -30 -91.5t-96 -37.5q-36 0 -71.5 18t-64.5 43.5t-56.5 51t-56 43.5t-53.5 18q-30 0 -30 -59q0 -10 1 -32.5t1 -31.5 q0 -30 -10 -30h-5q-63 1 -81.5 21t-18.5 73z" />
<glyph unicode="&#xd2;" horiz-adv-x="1325" d="M43 803q0 174 34 315t93 236.5t140 160.5t172.5 94t193.5 29q148 0 265 -64t190 -175t111 -255t38 -310v-15q-1 -150 -21.5 -272.5t-66 -225.5t-115 -173t-172 -109t-233.5 -39q-126 0 -232 48t-178 127.5t-122.5 184t-73.5 216.5t-23 227zM254 821q0 -112 27.5 -220.5 t77 -197t127.5 -143.5t171 -55q209 0 309.5 154t100.5 493q0 156 -48.5 288.5t-138.5 213t-202 80.5q-131 0 -229 -84t-146.5 -221.5t-48.5 -307.5zM502 1905q0 31 23.5 48t56.5 17q22 0 46 -12l25 -12l127 -93l-2 2q43 -25 43 -57q0 -21 -21.5 -35t-56.5 -14q-6 0 -41 11 t-81 29t-82.5 50t-36.5 66z" />
<glyph unicode="&#xd3;" horiz-adv-x="1325" d="M43 803q0 174 34 315t93 236.5t140 160.5t172.5 94t193.5 29q148 0 265 -64t190 -175t111 -255t38 -310v-15q-1 -150 -21.5 -272.5t-66 -225.5t-115 -173t-172 -109t-233.5 -39q-126 0 -232 48t-178 127.5t-122.5 184t-73.5 216.5t-23 227zM254 821q0 -112 27.5 -220.5 t77 -197t127.5 -143.5t171 -55q209 0 309.5 154t100.5 493q0 156 -48.5 288.5t-138.5 213t-202 80.5q-131 0 -229 -84t-146.5 -221.5t-48.5 -307.5zM502 1802q0 33 43 58l-2 -2l127 92q2 0 12 6t26.5 12t32.5 6q33 0 56.5 -17t23.5 -48q0 -34 -36.5 -66t-82.5 -50t-81 -29 t-41 -11q-35 0 -56.5 14t-21.5 35z" />
<glyph unicode="&#xd4;" horiz-adv-x="1329" d="M45 803q0 174 34 315t93 236.5t140 160.5t172.5 94t193.5 29q148 0 265 -64t190 -175t111 -255t38 -310v-15q-1 -150 -21.5 -272.5t-66 -225.5t-115 -173t-172 -109t-233.5 -39q-126 0 -232 48t-178 127.5t-122.5 184t-73.5 216.5t-23 227zM256 821q0 -112 27.5 -220.5 t77 -197t127.5 -143.5t171 -55q209 0 309.5 154t100.5 493q0 156 -48.5 288.5t-138.5 213t-202 80.5q-131 0 -229 -84t-146.5 -221.5t-48.5 -307.5zM354 1829q-2 51 320 342q24 -23 65.5 -63.5t64 -62t54.5 -53.5t49.5 -51.5t35.5 -41t26 -36.5t8 -26v-2q0 -25 -27 -50.5 t-47 -25.5q-18 0 -44.5 17.5t-56.5 43.5t-34 29q-21 21 -47.5 48t-40 41t-16.5 18l-62 -64q-6 -7 -24.5 -25.5t-27 -27.5t-24 -25t-25.5 -24t-22 -17.5t-21.5 -14t-17.5 -5.5q-31 0 -58.5 30t-27.5 46z" />
<glyph unicode="&#xd5;" horiz-adv-x="1333" d="M47 803q0 174 34 315t93 236.5t140 160.5t172.5 94t193.5 29q148 0 265 -64t190 -175t111 -255t38 -310v-15q-1 -150 -21.5 -272.5t-66 -225.5t-115 -173t-172 -109t-233.5 -39q-126 0 -232 48t-178 127.5t-122.5 184t-73.5 216.5t-23 227zM258 821q0 -112 27.5 -220.5 t77 -197t128 -143.5t171.5 -55q209 0 309 154t100 493q0 156 -48.5 288.5t-138.5 213t-202 80.5q-131 0 -229 -84t-146.5 -221.5t-48.5 -307.5zM381 1858v45q0 54 30.5 91.5t96.5 37.5q52 0 103.5 -27t85 -60t64.5 -60t46 -27q33 0 33 59q0 11 -1 32t-1 29q0 33 10 33h4 q63 -1 81.5 -21t18.5 -73v-45q0 -54 -30.5 -91.5t-96.5 -37.5q-43 0 -88 27t-76.5 60t-69 60t-67.5 27t-30 -59q0 -10 1 -32.5t1 -31.5q0 -31 -11 -31h-4q-63 1 -81.5 21.5t-18.5 73.5z" />
<glyph unicode="&#xd6;" horiz-adv-x="1353" d="M57 803q0 174 34 315t93 236.5t140 160.5t172.5 94t193.5 29q148 0 265 -64t190 -175t111 -255t38 -310v-15q-1 -150 -21.5 -272.5t-66 -225.5t-115 -173t-172 -109t-233.5 -39q-126 0 -232 48t-178 127.5t-122.5 184t-73.5 216.5t-23 227zM213 1696q0 40 29.5 68 t70.5 28t71 -28t30 -68t-30 -68.5t-71 -28.5t-70.5 28.5t-29.5 68.5zM268 821q0 -112 27.5 -220.5t77 -197t128 -143.5t171.5 -55q209 0 309 154t100 493q0 156 -48.5 288.5t-138.5 213t-202 80.5q-131 0 -229 -84t-146.5 -221.5t-48.5 -307.5zM930 1706q0 40 29.5 68 t70.5 28t70.5 -28t29.5 -68t-29.5 -68t-70.5 -28t-70.5 28t-29.5 68z" />
<glyph unicode="&#xd8;" horiz-adv-x="1355" d="M57 803q0 174 34 315t93 236.5t140 160.5t172.5 94t193.5 29q148 0 265 -64t190 -175t111 -255t38 -310v-15q-1 -150 -21.5 -272.5t-66 -225.5t-115 -173t-172 -109t-233.5 -39q-126 0 -232 48t-178 127.5t-122.5 184t-73.5 216.5t-23 227zM268 821q0 -163 55.5 -313.5 t153.5 -231.5q244 1005 281 1149q-45 9 -66 9q-131 0 -229 -84t-146.5 -221.5t-48.5 -307.5zM670 205h2q209 0 309 154t100 493q0 136 -39 256.5t-108 202.5z" />
<glyph unicode="&#xd9;" horiz-adv-x="1191" d="M45 1440q0 38 4 112v15q4 29 32.5 49t61.5 20q38 0 67.5 -20t29.5 -57q1 -130 14.5 -298.5t43.5 -355.5t70.5 -342t102 -256.5t131.5 -101.5q72 0 138 125.5t110 311.5t70 392.5t26 376.5q0 88 -6 158q6 29 37 47t72 18q40 0 69 -18.5t29 -54.5v-76q0 -164 -7.5 -313.5 t-25.5 -301t-46 -278.5t-71 -238t-98 -188t-130.5 -121.5t-164.5 -44.5q-91 0 -168 47.5t-133.5 128.5t-101.5 195t-73.5 240.5t-47.5 271t-27 281t-8 276.5zM436 1905q0 31 23.5 48t56.5 17q22 0 47 -12l25 -12l127 -93l-2 2q43 -25 43 -57q0 -21 -21.5 -35t-56.5 -14 q-6 0 -41 11t-81.5 29t-83 50t-36.5 66z" />
<glyph unicode="&#xda;" horiz-adv-x="1191" d="M45 1440q0 38 4 112v15q4 29 32.5 49t61.5 20q38 0 67.5 -20t29.5 -57q1 -130 14.5 -298.5t43.5 -355.5t70.5 -342t102 -256.5t131.5 -101.5q72 0 138 125.5t110 311.5t70 392.5t26 376.5q0 88 -6 158q6 29 37 47t72 18q40 0 69 -18.5t29 -54.5v-76q0 -164 -7.5 -313.5 t-25.5 -301t-46 -278.5t-71 -238t-98 -188t-130.5 -121.5t-164.5 -44.5q-91 0 -168 47.5t-133.5 128.5t-101.5 195t-73.5 240.5t-47.5 271t-27 281t-8 276.5zM436 1802q0 33 43 58l-2 -2l127 92q2 0 12.5 6t27 12t32.5 6q33 0 56.5 -17t23.5 -48q0 -34 -36.5 -66t-83 -50 t-81.5 -29t-41 -11q-35 0 -56.5 14t-21.5 35z" />
<glyph unicode="&#xdb;" horiz-adv-x="1198" d="M47 1440q0 38 4 112v15q4 29 32.5 49t61.5 20q38 0 67.5 -20t29.5 -57q1 -130 14.5 -298.5t43.5 -355.5t70.5 -342t102 -256.5t131.5 -101.5q72 0 138 125.5t110 311.5t70 392.5t26 376.5q0 88 -6 158q6 29 37 47t72 18q40 0 69 -18.5t29 -54.5v-76q0 -164 -7.5 -313.5 t-25.5 -301t-46 -278.5t-71 -238t-98 -188t-130.5 -121.5t-164.5 -44.5q-91 0 -168 47.5t-133.5 128.5t-101.5 195t-73.5 240.5t-47.5 271t-27 281t-8 276.5zM287 1829q-2 52 319 342q24 -23 65.5 -63.5t64 -62t54.5 -53.5t49.5 -51.5t35.5 -41t26 -36.5t8 -26v-2 q0 -25 -26.5 -50.5t-46.5 -25.5q-18 0 -44.5 17t-57 43.5t-34.5 29.5q-21 21 -47.5 48t-40 41t-16.5 18l-61 -64q-6 -7 -24.5 -25.5t-27 -27.5t-24 -25t-25.5 -24t-22 -17.5t-21.5 -14t-17.5 -5.5q-31 0 -58.5 30t-27.5 46z" />
<glyph unicode="&#xdc;" horiz-adv-x="1222" d="M59 1440q0 38 4 112v15q4 29 33 49t62 20q38 0 67 -20t29 -57q1 -130 14.5 -298.5t43.5 -355.5t70.5 -342t102 -256.5t131.5 -101.5q72 0 138.5 125.5t110 311.5t70 393t26.5 376q0 76 -7 158q6 29 37 47t72 18q40 0 69 -18.5t29 -54.5v-76q0 -164 -7.5 -313.5 t-25.5 -301t-46 -278.5t-71 -238t-98 -188t-130.5 -121.5t-164.5 -44.5q-91 0 -168 47.5t-133.5 128.5t-101.5 195t-73.5 240.5t-47.5 271t-27 281t-8 276.5zM61 1810q0 40 30 68.5t71 28.5t70.5 -28.5t29.5 -68.5t-29.5 -68t-70.5 -28t-71 28t-30 68zM954 1817q0 40 30 68 t71 28t70.5 -28t29.5 -68t-29.5 -68.5t-70.5 -28.5t-71 28.5t-30 68.5z" />
<glyph unicode="&#xdd;" horiz-adv-x="1185" d="M27 311v17q0 66 19.5 116.5t50 80.5t75 49t87.5 25.5t93 6.5q89 0 145 -69.5t56 -157.5q0 -51 -18.5 -74.5t-73.5 -23.5q-53 0 -67.5 10.5t-14.5 38.5v24q0 26 -19.5 51t-58.5 25q-27 0 -46.5 -14.5t-28 -37t-12 -41t-3.5 -34.5q0 -133 240 -133q52 0 93 15t68 44t46 61 t31.5 78t20 82t16 86t15.5 78q-109 188 -224 412t-179 363.5t-64 152.5q0 25 48 55.5t71 30.5q31 0 100 -101t142 -270l67 -145l111 -215l55 260l78 399q10 35 39.5 56.5t61.5 21.5q45 0 75.5 -21.5t30.5 -64.5q0 -32 -7.5 -72t-21.5 -95t-18 -74q-18 -79 -63 -295t-89 -405 t-90 -343q-22 -69 -52.5 -116t-68.5 -76.5t-96 -45t-120.5 -21t-155.5 -5.5q-94 0 -163 26.5t-106.5 72.5t-55 98.5t-19.5 113.5zM430 1802q0 33 43 58l-2 -2l127 92q2 0 12.5 6t27 12t32.5 6q33 0 56.5 -17t23.5 -48q0 -34 -36.5 -66t-83 -50t-81.5 -29t-41 -11 q-35 0 -56.5 14t-21.5 35z" />
<glyph unicode="&#xdf;" horiz-adv-x="1202" d="M82 78v1253q6 34 52.5 57t116.5 32.5t119 12.5t97 3q62 0 108.5 -1.5t105.5 -7t103 -15.5t93.5 -27.5t85.5 -42t70 -61t55 -82t34 -107t13 -134.5q0 -76 -11.5 -138t-40 -121t-50.5 -93.5t-68 -101.5v-2q14 -15 48 -44.5t54 -50t37.5 -58t17.5 -81.5v-14q0 -98 -55 -169 t-178 -85h-174q0 11 -1 35t-1 35q0 23 1 70.5t1 70.5h51q55 7 81.5 28.5t26.5 49.5q0 38 -37 69t-89 31h-37q0 38 -1 114t-1 115q99 29 149.5 105t50.5 217q0 74 -24 126.5t-61 82t-96.5 46.5t-113.5 21.5t-129 4.5q-7 0 -58.5 -1t-111.5 -1v-1221h-61q-37 0 -63.5 2.5 t-53.5 10t-41 24.5t-14 43z" />
<glyph unicode="&#xe0;" horiz-adv-x="1249" d="M25 115q0 16 4 28l510 1209q20 49 42.5 63.5t77.5 14.5q42 0 64.5 -10t38.5 -48l450 -1229q11 -11 11 -39q0 -41 -31 -72.5t-76 -31.5q-33 0 -60.5 19t-51 58t-39.5 75.5t-40.5 96t-41.5 95.5h-514l-84 -205q-30 -67 -72.5 -102t-79.5 -35q-45 0 -76.5 34.5t-31.5 78.5z M438 559h383q-164 484 -170 500zM463 1692q0 31 23.5 48t56.5 17q22 0 47 -12l24 -12l127 -93l-2 2q43 -25 43 -57q0 -21 -21.5 -35t-55.5 -14q-6 0 -41 11t-81.5 29t-83 50t-36.5 66z" />
<glyph unicode="&#xe1;" horiz-adv-x="1249" d="M25 115q0 16 4 28l510 1209q20 49 42.5 63.5t77.5 14.5q42 0 64.5 -10t38.5 -48l450 -1229q11 -11 11 -39q0 -41 -31 -72.5t-76 -31.5q-33 0 -60.5 19t-51 58t-39.5 75.5t-40.5 96t-41.5 95.5h-514l-84 -205q-30 -67 -72.5 -102t-79.5 -35q-45 0 -76.5 34.5t-31.5 78.5z M438 559h383q-164 484 -170 500zM463 1589q0 33 43 58l-2 -2l127 92q2 0 12 6t26.5 12t32.5 6q33 0 56.5 -17t23.5 -48q0 -34 -36.5 -66t-82.5 -50t-81 -29t-41 -11q-35 0 -56.5 14t-21.5 35z" />
<glyph unicode="&#xe2;" horiz-adv-x="1271" d="M35 115q0 16 4 28l510 1209q20 49 43 63.5t78 14.5q42 0 64 -10t38 -48l451 -1229q10 -10 10 -39q0 -41 -31 -72.5t-76 -31.5q-33 0 -60.5 19t-51 58t-39.5 75.5t-40.5 96t-41.5 95.5h-514l-84 -205q-30 -67 -72.5 -102t-79.5 -35q-45 0 -76.5 34.5t-31.5 78.5zM344 1563 q-2 51 320 342q24 -23 65.5 -63.5t64 -62t54.5 -53.5t49.5 -51.5t35.5 -41t26 -36.5t8 -26v-2q0 -25 -27 -50.5t-47 -25.5q-18 0 -44.5 17.5t-56.5 43.5t-34 29q-21 22 -48 48.5t-40.5 40.5t-16.5 18l-61 -64q-6 -7 -24.5 -25.5t-27 -27.5t-24 -25t-25.5 -24t-22 -17.5 t-21.5 -14t-17.5 -5.5q-31 0 -58.5 30t-27.5 46zM449 559h382q-9 27 -71 212.5t-98 287.5z" />
<glyph unicode="&#xe3;" horiz-adv-x="1284" d="M39 115q0 16 4 28l510 1209q20 49 43 63.5t78 14.5q42 0 64 -10t38 -48l451 -1229q10 -10 10 -39q0 -41 -31 -72.5t-76 -31.5q-33 0 -60.5 19t-51 58t-39.5 75.5t-40.5 96t-41.5 95.5h-514l-84 -205q-30 -67 -72.5 -102t-79.5 -35q-45 0 -76.5 34.5t-31.5 78.5zM393 1595 v45q0 54 30.5 91.5t96.5 37.5q52 0 103.5 -27t85 -60t64.5 -60t46 -27q33 0 33 60q0 11 -1 32t-1 29q0 33 10 33h4q63 -1 82 -21t19 -73v-45q0 -54 -30.5 -91.5t-96.5 -37.5q-43 0 -88 27t-76.5 60t-69 60t-67.5 27q-31 0 -31 -60q0 -10 1 -32t1 -31q0 -31 -10 -31h-4 q-63 1 -82 21t-19 73zM453 559h383q-164 484 -170 500z" />
<glyph unicode="&#xe4;" horiz-adv-x="1304" d="M51 115q0 16 4 28l510 1209q20 49 43 63.5t78 14.5q42 0 64 -10t38 -48l451 -1229q10 -10 10 -39q0 -41 -30.5 -72.5t-75.5 -31.5q-33 0 -61 19t-51 58t-39.5 75t-41 96t-41.5 96h-514l-84 -205q-30 -67 -72 -102t-79 -35q-45 0 -77 34.5t-32 78.5zM268 1335 q0 40 30 68.5t71 28.5t70.5 -28.5t29.5 -68.5t-29.5 -68t-70.5 -28t-71 28t-30 68zM465 559h383q-164 484 -170 500zM879 1337q0 40 29.5 68.5t70.5 28.5t70.5 -28.5t29.5 -68.5t-29.5 -68t-70.5 -28t-70.5 28t-29.5 68z" />
<glyph unicode="&#xe5;" horiz-adv-x="1175" d="M37 104q0 15 4 27l455 1079q-45 29 -69 79t-24 104q0 108 63.5 163.5t154.5 55.5q103 0 156.5 -61.5t53.5 -157.5q0 -148 -98 -197l391 -1065l-2 6q13 -22 13 -43q0 -36 -32 -65t-73 -29q-30 0 -54.5 16t-45.5 51t-35.5 67t-37.5 88t-40 91h-467l-78 -186 q-27 -62 -65 -93.5t-72 -31.5q-41 0 -69.5 31t-28.5 71zM414 508h348q-20 58 -72.5 213t-83.5 242zM551 1393q0 -33 18 -59.5t47 -26.5q34 0 50 22t16 72q0 33 -17 56.5t-44 23.5q-32 0 -51 -24.5t-19 -63.5z" />
<glyph unicode="&#xe6;" horiz-adv-x="1480" d="M41 115q0 16 4 28l477 1209q18 45 47 61.5t80 18.5l13 -1q12 -1 28 -1q14 0 79.5 0.5t191.5 1t288 0.5q78 0 78 -115q0 -63 -17 -78.5t-85 -15.5h-45q-11 0 -39 1t-47 1q-263 0 -263 -2l3 -650q39 -4 164.5 -23.5t195.5 -19.5q25 0 39.5 13t20.5 28t25 28t52 13 q45 0 64.5 -25t19.5 -75q0 -67 -36 -114.5t-88 -68t-113 -20.5q-72 0 -156 25h2q-9 2 -34 7.5t-38.5 8.5t-33 5.5t-35.5 2.5q-31 0 -52 -14v-137h529q41 0 41 -76v-47q0 -33 -9 -49t-40.5 -25.5t-94.5 -9.5l-634 2v342h-258l-80 -205q-29 -67 -68.5 -102t-75.5 -35 q-40 0 -70 34.5t-30 78.5zM430 559h193v502q-5 -14 -29 -75t-67.5 -173t-96.5 -254z" />
<glyph unicode="&#xe7;" horiz-adv-x="999" d="M41 700q0 64 8.5 128.5t31 138t57.5 139t91 126t128 104.5t173.5 70t221.5 26q20 0 45.5 -2.5t62.5 -9.5t61.5 -25.5t24.5 -44.5q0 -119 -72 -119q-22 0 -36.5 0.5t-21 1t-7.5 0.5q-43 0 -86 -4.5t-98 -19t-102.5 -37t-95 -63t-80.5 -93t-54 -130t-21 -171.5 q0 -244 123 -372t402 -128q70 0 103.5 -12t43.5 -35.5t10 -73.5q0 -62 -23.5 -78t-101.5 -18q2 -20 2 -64q0 -137 -53 -227q-35 -53 -112 -86t-158 -33q-90 0 -152 40t-71 122v8q0 57 39.5 106.5t105.5 49.5q48 0 88.5 -26.5t46.5 -65.5q0 -16 -11.5 -30t-29.5 -15 q-112 -48 -112 -78q0 -14 30 -14q25 0 56.5 13t64 38t54.5 72t22 106q0 42 -12 92q-106 14 -194 51.5t-147 86t-105 111t-71.5 122t-42 123.5t-21.5 111t-5 89z" />
<glyph unicode="&#xe8;" horiz-adv-x="931" d="M61 0v1370q0 60 105 60h563q82 0 82 -115q0 -63 -19.5 -77.5t-101.5 -14.5h-127q-280 0 -280 -2l2 -650q41 -3 174 -23t211 -20q22 0 36 8.5t21 21t15.5 25t27 21t47.5 8.5q90 0 90 -100t-76 -151.5t-180 -51.5q-41 0 -143 24.5t-150 24.5q-43 0 -75 -14v-137h565 q43 0 43 -74v-49q0 -48 -28.5 -66t-125.5 -18h-676zM324 1692q0 31 23 48t56 17q22 0 47 -12l25 -12l127 -93l-2 2q43 -25 43 -57q0 -21 -21.5 -35t-56.5 -14q-6 0 -41 11t-81 29t-82.5 50t-36.5 66z" />
<glyph unicode="&#xe9;" horiz-adv-x="931" d="M61 0v1370q0 60 105 60h563q82 0 82 -115q0 -63 -19.5 -77.5t-101.5 -14.5h-127q-280 0 -280 -2l2 -650q41 -3 174 -23t211 -20q22 0 36 8.5t21 21t15.5 25t27 21t47.5 8.5q90 0 90 -100t-76 -151.5t-180 -51.5q-41 0 -143 24.5t-150 24.5q-43 0 -75 -14v-137h565 q43 0 43 -74v-49q0 -48 -28.5 -66t-125.5 -18h-676zM324 1589q0 33 43 58l-2 -2l127 92q2 0 12 6t26.5 12t32.5 6q33 0 56.5 -17t23.5 -48q0 -34 -36.5 -66t-83 -50t-81.5 -29t-41 -11q-34 0 -55.5 14t-21.5 35z" />
<glyph unicode="&#xea;" horiz-adv-x="946" d="M68 0v1370q0 60 104 60h563q82 0 82 -115q0 -63 -19.5 -77.5t-101.5 -14.5h-127q-280 0 -280 -2l2 -650q41 -3 174 -23t211 -20q22 0 36 8.5t21 21t15.5 25t27 21t47.5 8.5q90 0 90 -100t-76 -151.5t-180 -51.5q-41 0 -142.5 24.5t-149.5 24.5q-44 0 -76 -14v-137h565 q43 0 43 -74v-49q0 -48 -28.5 -66t-125.5 -18h-675zM139 1608q-2 51 320 342q24 -23 65.5 -63.5t64 -62t54.5 -53.5t49.5 -51.5t35.5 -41t26 -36.5t8 -26v-2q0 -25 -27 -50.5t-47 -25.5q-18 0 -44.5 17.5t-56.5 43.5t-34 29q-21 21 -47.5 48t-40 41t-16.5 18l-62 -64 q-6 -7 -24.5 -25.5t-27 -27.5t-24 -25t-25.5 -24t-22 -17.5t-21.5 -14t-17.5 -5.5q-31 0 -58.5 30t-27.5 46z" />
<glyph unicode="&#xeb;" horiz-adv-x="944" d="M70 0v1370q0 60 104 60h563q82 0 82 -115q0 -63 -19.5 -77.5t-101.5 -14.5h-127q-280 0 -280 -2l2 -650q41 -3 174 -23t211 -20q22 0 36 8.5t21 21t15.5 25t27 21t47.5 8.5q90 0 90 -100t-76 -151.5t-180 -51.5q-41 0 -142.5 24.5t-149.5 24.5q-44 0 -76 -14v-137h565 q43 0 43 -74v-49q0 -48 -28.5 -66t-125.5 -18h-675zM193 1634q0 40 29.5 68.5t70.5 28.5t70.5 -28.5t29.5 -68.5t-29.5 -68t-70.5 -28t-70.5 28t-29.5 68zM524 1636q0 40 30 68.5t71 28.5t70.5 -28.5t29.5 -68.5t-29.5 -68t-70.5 -28t-71 28t-30 68z" />
<glyph unicode="&#xec;" horiz-adv-x="378" d="M31 1692q0 31 23.5 48t56.5 17q22 0 47 -12l24 -12l127 -93l-2 2q43 -25 43 -57q0 -21 -21.5 -35t-56.5 -14q-6 0 -41 11t-81 29t-82.5 50t-36.5 66zM82 72q0 1128 4 1308q27 45 109 45q42 0 75 -14.5t33 -36.5v-1278q0 -58 -5.5 -76.5t-31.5 -21.5h-123q-37 0 -49 19 t-12 55z" />
<glyph unicode="&#xed;" horiz-adv-x="378" d="M31 1589q0 33 43 58l-2 -2l127 92q2 0 12 6t26.5 12t32.5 6q33 0 56.5 -17t23.5 -48q0 -34 -36.5 -66t-82.5 -50t-81 -29t-41 -11q-35 0 -56.5 14t-21.5 35zM82 72q0 1128 4 1308q27 45 109 45q42 0 75 -14.5t33 -36.5v-1278q0 -58 -5.5 -76.5t-31.5 -21.5h-123 q-37 0 -49 19t-12 55z" />
<glyph unicode="&#xee;" horiz-adv-x="378" d="M-121 1616q-2 51 320 342q24 -23 65.5 -63.5t64 -62t54.5 -53.5t49.5 -51.5t35.5 -41t26 -36.5t8 -26v-2q0 -25 -27 -50.5t-47 -25.5q-18 0 -44.5 17.5t-56.5 43.5t-34 29q-21 22 -48 48.5t-40.5 40.5t-16.5 18l-61 -64q-6 -7 -24.5 -25.5t-27 -27.5t-24 -25t-25.5 -24 t-22 -17.5t-21.5 -14t-17.5 -5.5q-31 0 -58.5 30t-27.5 46zM82 72q0 1128 4 1308q27 45 109 45q42 0 75 -14.5t33 -36.5v-1278q0 -58 -5.5 -76.5t-31.5 -21.5h-123q-37 0 -49 19t-12 55z" />
<glyph unicode="&#xef;" horiz-adv-x="378" d="M-76 1630q0 40 30 68t71 28t70.5 -28t29.5 -68t-29.5 -68t-70.5 -28t-71 28t-30 68zM82 72q0 1128 4 1308q27 45 109 45q42 0 75 -14.5t33 -36.5v-1278q0 -58 -5.5 -76.5t-31.5 -21.5h-123q-37 0 -49 19t-12 55zM256 1632q0 40 29.5 68.5t70.5 28.5t71 -28.5t30 -68.5 t-30 -68t-71 -28t-70.5 28t-29.5 68z" />
<glyph unicode="&#xf1;" horiz-adv-x="1058" d="M72 1352q0 38 31 58t75 20q48 0 70 -25v2l520 -446q0 61 -1 182t-1 182q0 23 3.5 38t14 30.5t34.5 23.5t61 8q68 0 89 -16q18 -15 19 -39v-1309q0 -38 -17 -50.5t-59 -12.5h-10q-30 0 -46 1t-39.5 5t-34.5 14t-11 27v625l-471 393q0 -161 1 -484t1 -487q0 -64 -20.5 -79 t-96.5 -15h-20q-83 0 -90 41zM240 1554v45q0 54 30.5 92t96.5 38q52 0 103.5 -27.5t85 -60t64.5 -60t46 -27.5q32 0 32 60q0 10 -1 32t-1 29q0 33 11 33h4q63 -1 81.5 -21t18.5 -73v-45q0 -54 -30.5 -91.5t-96.5 -37.5q-43 0 -88 27t-76.5 60t-69 60t-67.5 27q-31 0 -31 -60 q0 -10 1 -32t1 -31q0 -31 -10 -31h-4q-63 1 -81.5 21t-18.5 73z" />
<glyph unicode="&#xf2;" horiz-adv-x="1175" d="M43 702q0 150 30.5 273t82.5 206.5t123.5 140.5t151.5 82.5t169 25.5q105 0 193 -37t150.5 -101.5t105.5 -153.5t63.5 -192.5t20.5 -218.5v-12q-3 -715 -535 -715q-112 0 -206 41.5t-157 111t-107.5 161t-64.5 189.5t-20 199zM264 717q0 -91 21.5 -179.5t61 -160.5 t102 -116t137.5 -44q166 0 245.5 124.5t79.5 401.5q0 125 -38.5 232t-110 172t-160.5 65q-157 0 -247.5 -141.5t-90.5 -353.5zM428 1692q0 31 23.5 48t56.5 17q22 0 47 -12l25 -12l127 -93l-2 2q43 -25 43 -57q0 -21 -21.5 -35t-56.5 -14q-6 0 -41 11t-81.5 29t-83 50 t-36.5 66z" />
<glyph unicode="&#xf3;" horiz-adv-x="1175" d="M41 702q0 150 30.5 273t82.5 206.5t123.5 140.5t151.5 82.5t169 25.5q105 0 193 -37t150 -101.5t105 -153.5t63.5 -192.5t20.5 -218.5v-12q-3 -715 -534 -715q-112 0 -206 41.5t-157 111t-107.5 161t-64.5 189.5t-20 199zM262 717q0 -91 21.5 -179.5t61 -160.5t102 -116 t137.5 -44q166 0 245.5 124.5t79.5 401.5q0 125 -38.5 232t-110 172t-160.5 65q-157 0 -247.5 -141.5t-90.5 -353.5zM426 1589q0 33 43 58l-2 -2l127 92q2 0 12.5 6t27 12t32.5 6q33 0 56 -17t23 -48q0 -34 -36.5 -66t-82.5 -50t-81 -29t-41 -11q-35 0 -56.5 14t-21.5 35z " />
<glyph unicode="&#xf4;" horiz-adv-x="1181" d="M45 702q0 150 30.5 273t82.5 206.5t123.5 140.5t151.5 82.5t169 25.5q105 0 193 -37t150.5 -101.5t105.5 -153.5t63.5 -192.5t20.5 -218.5v-12q-3 -715 -535 -715q-112 0 -206 41.5t-157 111t-107.5 161t-64.5 189.5t-20 199zM266 717q0 -91 21.5 -179.5t61 -160.5 t102 -116t137.5 -44q166 0 245.5 124.5t79.5 401.5q0 125 -38.5 232t-110 172t-160.5 65q-157 0 -247.5 -141.5t-90.5 -353.5zM279 1616q-2 52 319 342q24 -23 65.5 -63.5t64 -62t54.5 -53.5t49.5 -51.5t35.5 -41t26 -36.5t8 -26v-2q0 -25 -27 -50.5t-47 -25.5 q-18 0 -44.5 17.5t-56.5 43.5t-34 29q-21 21 -47.5 48t-40 41t-16.5 18l-62 -64q-8 -8 -24.5 -25.5t-26 -27.5t-24.5 -25t-25.5 -23.5t-22 -18t-21 -14t-17.5 -5.5q-31 0 -58.5 30t-27.5 46z" />
<glyph unicode="&#xf5;" horiz-adv-x="1189" d="M49 702q0 150 30.5 273t82.5 206.5t123.5 140.5t151.5 82.5t169 25.5q105 0 193 -37t150.5 -101.5t105.5 -153.5t63.5 -192.5t20.5 -218.5v-12q-3 -715 -535 -715q-112 0 -206 41.5t-157 111t-107.5 161t-64.5 189.5t-20 199zM270 717q0 -91 21.5 -179.5t61 -160.5 t102 -116t137.5 -44q166 0 246 124.5t80 401.5q0 125 -39 232t-110.5 172t-160.5 65q-157 0 -247.5 -141.5t-90.5 -353.5zM307 1645v45q0 54 30.5 91.5t96.5 37.5q52 0 103.5 -27t85 -60t64.5 -60t46 -27q33 0 33 59q0 10 -1 32t-1 29q0 33 10 33h4q63 -1 82 -21t19 -73v-45 q0 -54 -30.5 -91.5t-96.5 -37.5q-43 0 -88 27t-76.5 60t-69 60t-67.5 27q-31 0 -31 -59q0 -10 1 -32.5t1 -31.5q0 -31 -10 -31h-4q-63 1 -82 21.5t-19 73.5z" />
<glyph unicode="&#xf6;" horiz-adv-x="1210" d="M59 702q0 150 30.5 273t82.5 206.5t123.5 140.5t151.5 82.5t169 25.5q105 0 193 -37t150.5 -101.5t105.5 -153.5t63.5 -192.5t20.5 -218.5v-12q-3 -715 -535 -715q-112 0 -206 41.5t-157 111t-107.5 161t-64.5 189.5t-20 199zM178 1487q0 40 30 68t71 28t70.5 -28 t29.5 -68t-29.5 -68t-70.5 -28t-71 28t-30 68zM281 717q0 -124 36 -236t111 -188t174 -76q166 0 246 124.5t80 401.5q0 125 -39 232t-110.5 172t-160.5 65q-105 0 -183 -67.5t-116 -178.5t-38 -249zM821 1497q0 40 30 68t71 28t70.5 -28t29.5 -68t-29.5 -68t-70.5 -28 t-71 28t-30 68z" />
<glyph unicode="&#xf8;" horiz-adv-x="1210" d="M59 702q0 150 30.5 273t82.5 206.5t123.5 140.5t151.5 82.5t169 25.5q105 0 193 -37t150.5 -101.5t105.5 -153.5t63.5 -192.5t20.5 -218.5v-12q-3 -715 -535 -715q-114 0 -209 42t-157.5 111t-106 161t-63 189.5t-19.5 198.5zM281 717q0 -121 35.5 -233.5t101.5 -182.5 q98 406 223 909q-8 2 -23 2q-105 0 -183 -67.5t-116 -178.5t-38 -249zM592 217h10q166 0 246 124.5t80 401.5q0 109 -31.5 207t-87.5 164z" />
<glyph unicode="&#xf9;" horiz-adv-x="1062" d="M45 1239q0 38 4 96v15q6 32 36.5 54.5t64.5 22.5q41 0 71.5 -22.5t30.5 -65.5q0 -137 18.5 -320t52 -366.5t91 -309.5t125.5 -126q73 0 137 175.5t97.5 403t33.5 418.5q0 56 -4 138q6 32 37.5 52.5t74.5 20.5q42 0 72.5 -21t30.5 -61v-65q0 -141 -6.5 -269.5t-22 -259 t-40 -239.5t-62.5 -205t-86.5 -162.5t-115 -104.5t-146.5 -38t-148.5 41t-118 110.5t-89.5 167.5t-65 206.5t-42 233t-24 242.5t-7 238zM371 1692q0 31 23.5 48t56.5 17q22 0 47 -12l24 -12l127 -93l-2 2q43 -25 43 -57q0 -21 -21.5 -35t-56.5 -14q-6 0 -41 11t-81 29 t-82.5 50t-36.5 66z" />
<glyph unicode="&#xfa;" horiz-adv-x="1062" d="M45 1239q0 38 4 96v15q6 32 36.5 54.5t64.5 22.5q41 0 71.5 -22.5t30.5 -65.5q0 -137 18.5 -320t52 -366.5t91 -309.5t125.5 -126q73 0 137 175.5t97.5 403t33.5 418.5q0 56 -4 138q6 32 37.5 52.5t74.5 20.5q42 0 72.5 -21t30.5 -61v-65q0 -141 -6.5 -269.5t-22 -259 t-40 -239.5t-62.5 -205t-86.5 -162.5t-115 -104.5t-146.5 -38t-148.5 41t-118 110.5t-89.5 167.5t-65 206.5t-42 233t-24 242.5t-7 238zM371 1589q0 33 43 58l-2 -2l127 92q2 0 12 6t26.5 12t32.5 6q33 0 56.5 -17t23.5 -48q0 -34 -36.5 -66t-82.5 -50t-81 -29t-41 -11 q-35 0 -56.5 14t-21.5 35z" />
<glyph unicode="&#xfb;" horiz-adv-x="1069" d="M47 1239q0 38 4 96v15q6 32 36.5 54.5t64.5 22.5q41 0 71.5 -22.5t30.5 -65.5q0 -137 18.5 -320t52 -366.5t91 -309.5t125.5 -126q73 0 137 175.5t97.5 403t33.5 418.5q0 56 -4 138q6 32 38 52.5t75 20.5q42 0 72 -21t30 -61v-65q0 -141 -6.5 -269.5t-22 -259t-40 -239.5 t-62.5 -205t-86.5 -162.5t-115 -104.5t-146.5 -38t-148.5 41t-118 110.5t-89.5 167.5t-65 206.5t-42 233t-24 242.5t-7 238zM223 1616q-2 51 320 342q24 -23 65.5 -63.5t64 -62t54.5 -53.5t49.5 -51.5t35.5 -41t26 -36.5t8 -26v-2q0 -25 -27 -50.5t-47 -25.5 q-18 0 -44.5 17.5t-56.5 43.5t-34 29q-21 22 -48 48.5t-40.5 40.5t-16.5 18l-61 -64q-6 -7 -24.5 -25.5t-27 -27.5t-24 -25t-25.5 -24t-22 -17.5t-21.5 -14t-17.5 -5.5q-31 0 -58.5 30t-27.5 46z" />
<glyph unicode="&#xfc;" horiz-adv-x="1089" d="M57 1239q0 38 4 96v15q6 32 36.5 54.5t64.5 22.5q41 0 71.5 -22.5t30.5 -65.5q0 -137 18.5 -320t52 -366.5t91 -309.5t125.5 -126q73 0 137 175.5t97.5 403t33.5 418.5q0 56 -4 138q6 32 38 52.5t75 20.5q42 0 72 -21t30 -61v-65q0 -141 -6.5 -269.5t-22 -259t-40 -239.5 t-62.5 -205t-86.5 -162.5t-115 -104.5t-146.5 -38t-148.5 41t-118 110.5t-89.5 167.5t-65 206.5t-42 233t-24 242.5t-7 238zM63 1630q0 40 30 68t71 28t70.5 -28t29.5 -68t-29.5 -68t-70.5 -28t-71 28t-30 68zM821 1636q0 40 30 68.5t71 28.5t70.5 -28.5t29.5 -68.5 t-29.5 -68t-70.5 -28t-71 28t-30 68z" />
<glyph unicode="&#xfd;" horiz-adv-x="1056" d="M29 287v12q1 66 22.5 118t57 83.5t77.5 48t86 16.5q64 0 99 -25t35 -69q0 -37 -26 -61.5t-77 -24.5q-45 0 -60.5 -29t-15.5 -80q0 -90 183 -90q37 0 67 11.5t50.5 35t35 48t25.5 61.5t17.5 64t14.5 67.5t13 61.5q-92 159 -189.5 350.5t-151.5 310t-54 129.5q0 29 49 62.5 t73 33.5q32 0 96 -88t130 -237q62 -140 121 -248l100 502q10 34 40 54.5t64 20.5q49 0 81 -23t32 -71l-246 -1091q-18 -63 -44 -106t-59 -69.5t-84.5 -40.5t-107.5 -19t-143 -5q-86 0 -148 24t-96 66.5t-49.5 90.5t-17.5 106zM367 1589q0 33 43 58l-2 -2l127 92q2 0 12 6 t26.5 12t32.5 6q33 0 56.5 -17t23.5 -48q0 -34 -36.5 -66t-83 -50t-81.5 -29t-41 -11q-34 0 -55.5 14t-21.5 35z" />
<glyph unicode="&#xff;" horiz-adv-x="1085" d="M37 287v12q1 66 22.5 118t57 83.5t78 48t86.5 16.5q64 0 98.5 -24.5t34.5 -69.5q0 -37 -26 -61.5t-77 -24.5q-45 0 -60 -29t-15 -80q0 -90 182 -90q37 0 67 11.5t50.5 35t35 48t25.5 61.5t17.5 64t14.5 67.5t13 61.5q-92 159 -189.5 350.5t-151.5 310t-54 129.5 q0 29 49.5 62.5t73.5 33.5q32 0 95 -88t130 -237q62 -140 121 -248l100 502q10 34 40.5 54.5t64.5 20.5q49 0 80.5 -23t31.5 -71l-246 -1091q-18 -63 -44 -106t-59 -69.5t-84.5 -40.5t-107.5 -19t-143 -5q-86 0 -148 24t-96 66.5t-49.5 90.5t-17.5 106zM215 1638 q0 40 29.5 68.5t70.5 28.5t71 -28.5t30 -68.5t-30 -68t-71 -28t-70.5 28t-29.5 68zM842 1636q0 40 29.5 68.5t70.5 28.5t70.5 -28.5t29.5 -68.5t-29.5 -68t-70.5 -28t-70.5 28t-29.5 68z" />
<glyph unicode="&#x152;" horiz-adv-x="1855" d="M63 803q0 174 34 315t93 236.5t140 160.5t172.5 94t193.5 29l654 -6q84 0 227 -8q15 -4 24 -27t9 -41v-20q0 -104 -51 -104l-664 -2v-787h657q33 3 44.5 16.5t11.5 40.5q0 8 -1 28t-1 30q0 21 9.5 34.5t27.5 19.5t33.5 7.5t37.5 1.5q86 0 86 -100q0 -57 -2.5 -93.5 t-11 -70.5t-23.5 -53t-41 -34t-62 -20.5t-87 -5.5h-672v-249l846 -2q32 -5 41.5 -28.5t9.5 -64.5q0 -65 -13 -86q-14 -20 -40 -20h-971q-1 0 -31 6h-51q-126 0 -232 48t-178 127.5t-122.5 184t-73.5 216.5t-23 227zM274 821q0 -112 27.5 -220.5t77 -197t128 -143.5 t171.5 -55h6v1227q-127 -4 -221.5 -88t-141.5 -220t-47 -303z" />
<glyph unicode="&#x153;" horiz-adv-x="1382" d="M63 702q0 150 28 273.5t75.5 207t113 140.5t139 83t154.5 26l594 -2q78 0 78 -115q0 -63 -17 -79.5t-83 -16.5h-45q-10 0 -37 2t-45 2q-260 0 -260 -4l2 -648q41 -4 163.5 -23.5t190.5 -19.5q24 0 38.5 13t20.5 28t25 28t51 13q44 0 63 -25t19 -75q0 -68 -35.5 -115.5 t-86.5 -67.5t-111 -20q-72 0 -152 25h2q-11 2 -34.5 7.5t-36.5 8.5t-32 5.5t-34 2.5q-32 0 -53 -14v-137h520q39 0 39 -76v-47q0 -48 -25.5 -66t-115.5 -18l-621 2q-99 3 -181.5 46.5t-139 112.5t-96 159.5t-57.5 187t-18 196.5zM266 717q0 -122 32.5 -233.5t100 -188 t156.5 -78.5v995q-135 -12 -212 -151.5t-77 -343.5z" />
<glyph unicode="&#x178;" horiz-adv-x="1210" d="M37 311v17q0 66 19.5 116.5t50 80.5t75 49t87.5 25.5t93 6.5q89 0 145 -69.5t56 -157.5q0 -51 -18.5 -74.5t-73.5 -23.5q-53 0 -67.5 10.5t-14.5 38.5v24q0 26 -19.5 51t-58.5 25q-27 0 -46.5 -14.5t-28 -37t-12 -41t-3.5 -34.5q0 -133 240 -133q46 0 83.5 12.5 t62.5 32.5t46 51t33 61t22.5 71t16 73.5t13.5 74.5t14 68q-109 188 -224 412t-179 363.5t-64 152.5q0 25 47.5 55.5t70.5 30.5q31 0 100 -101t142 -270l68 -145l110 -215l56 260l77 399q10 35 39.5 56.5t61.5 21.5q45 0 75.5 -21.5t30.5 -64.5q0 -32 -7.5 -72t-21.5 -95 t-18 -74q-18 -79 -63 -295t-89 -405t-90 -343q-22 -69 -52.5 -116t-69 -76.5t-96.5 -45t-120 -21t-155 -5.5q-94 0 -163 26.5t-106.5 72.5t-55 98.5t-19.5 113.5zM256 1802q0 40 29.5 68t70.5 28t71 -28t30 -68t-30 -68t-71 -28t-70.5 28t-29.5 68zM961 1808q0 40 29.5 68.5 t70.5 28.5t70.5 -28.5t29.5 -68.5t-29.5 -68t-70.5 -28t-70.5 28t-29.5 68z" />
<glyph unicode="&#x2000;" horiz-adv-x="1085" />
<glyph unicode="&#x2001;" horiz-adv-x="2171" />
<glyph unicode="&#x2002;" horiz-adv-x="1085" />
<glyph unicode="&#x2003;" horiz-adv-x="2171" />
<glyph unicode="&#x2004;" horiz-adv-x="723" />
<glyph unicode="&#x2005;" horiz-adv-x="542" />
<glyph unicode="&#x2006;" horiz-adv-x="361" />
<glyph unicode="&#x2007;" horiz-adv-x="361" />
<glyph unicode="&#x2008;" horiz-adv-x="271" />
<glyph unicode="&#x2009;" horiz-adv-x="434" />
<glyph unicode="&#x200a;" horiz-adv-x="120" />
<glyph unicode="&#x2010;" horiz-adv-x="792" d="M78 723q0 84 63 96h516q26 0 43 -35t17 -67t-17 -67.5t-43 -35.5l-536 4q-22 0 -32.5 38.5t-10.5 66.5z" />
<glyph unicode="&#x2011;" horiz-adv-x="792" d="M78 723q0 84 63 96h516q26 0 43 -35t17 -67t-17 -67.5t-43 -35.5l-536 4q-22 0 -32.5 38.5t-10.5 66.5z" />
<glyph unicode="&#x2012;" horiz-adv-x="792" d="M78 723q0 84 63 96h516q26 0 43 -35t17 -67t-17 -67.5t-43 -35.5l-536 4q-22 0 -32.5 38.5t-10.5 66.5z" />
<glyph unicode="&#x2013;" horiz-adv-x="1177" d="M78 723q0 84 101 96h827q42 0 69 -35t27 -67t-27 -67.5t-69 -35.5l-859 4q-35 0 -52 38.5t-17 66.5z" />
<glyph unicode="&#x2014;" horiz-adv-x="2201" d="M78 723q0 84 202 96h1654q83 0 137.5 -35t54.5 -67t-54.5 -67.5t-137.5 -35.5l-1718 4q-71 0 -104.5 38.5t-33.5 66.5z" />
<glyph unicode="&#x2018;" horiz-adv-x="315" d="M53 1296v13q36 325 105 325q39 0 75.5 -144.5t36.5 -197.5v-6q-6 -45 -37.5 -71.5t-80.5 -26.5q-39 6 -67.5 36.5t-31.5 71.5z" />
<glyph unicode="&#x2019;" horiz-adv-x="315" d="M47 1530v6q6 45 38 71.5t81 26.5q39 -6 67 -36.5t31 -71.5v-13q-36 -325 -104 -325q-39 0 -76 144.5t-37 197.5z" />
<glyph unicode="&#x201a;" horiz-adv-x="315" d="M47 100v6q6 45 38 72t81 27q39 -6 67 -37t31 -72v-12q-36 -326 -104 -326q-39 0 -76 144.5t-37 197.5z" />
<glyph unicode="&#x201c;" horiz-adv-x="618" d="M68 1296v13q36 325 104 325q39 0 76 -144.5t37 -197.5v-6q-6 -45 -38 -71.5t-81 -26.5q-39 6 -67 36.5t-31 71.5zM338 1305v12q36 325 104 325q39 0 76 -144.5t37 -197.5v-6q-6 -45 -38 -71.5t-81 -26.5q-39 6 -67 37t-31 72z" />
<glyph unicode="&#x201d;" horiz-adv-x="616" d="M63 1530v6q6 45 38 71.5t81 26.5q39 -6 67.5 -36.5t31.5 -71.5v-13q-36 -325 -105 -325q-39 0 -76 144.5t-37 197.5zM334 1538v6q6 45 38 71.5t81 26.5q39 -6 67 -36.5t31 -71.5v-12q-36 -326 -105 -326q-39 0 -75.5 144.5t-36.5 197.5z" />
<glyph unicode="&#x201e;" horiz-adv-x="616" d="M63 96v6q6 45 38 72t81 27q39 -6 67.5 -37t31.5 -72v-12q-36 -326 -105 -326q-39 0 -76 144.5t-37 197.5zM334 104v7q6 45 38 71.5t81 26.5q39 -6 67 -37t31 -72v-12q-36 -326 -105 -326q-39 0 -75.5 144.5t-36.5 197.5z" />
<glyph unicode="&#x202f;" horiz-adv-x="434" />
<glyph unicode="&#x2039;" horiz-adv-x="505" d="M12 729l250 322q24 43 78 43q36 0 62 -21.5t26 -56.5q0 -32 -27 -76l-174 -215l181 -246q24 -27 24 -55q0 -34 -30 -60t-66 -26q-34 0 -55 27z" />
<glyph unicode="&#x203a;" horiz-adv-x="505" d="M74 424q0 28 24 55l181 246l-175 215q-26 42 -26 76q0 35 26 56.5t62 21.5q54 0 78 -43l250 -322l-269 -364q-21 -27 -55 -27q-36 0 -66 26t-30 60z" />
<glyph unicode="&#x205f;" horiz-adv-x="542" />
<glyph unicode="&#x20ac;" horiz-adv-x="833" d="M31 819q0 70 67 86q4 25 11 41h-3q-22 0 -38 12.5t-23.5 30t-10.5 31t-3 22.5q0 37 18.5 61.5t71.5 29.5h72q80 133 208 217t281 84q50 0 65 -14t15 -56v-37q0 -12 -9 -23.5t-22 -15.5q-165 -51 -272 -155h88q41 0 67.5 -32.5t26.5 -62.5t-26 -61t-68 -31h-211l-10 -37 h221q41 0 67.5 -32.5t26.5 -61.5q0 -30 -26 -62t-68 -32h-240q8 -180 103.5 -327.5t259.5 -211.5q100 -40 100 -98q0 -25 -25 -54.5t-61 -29.5q-116 12 -214.5 64.5t-165.5 126.5t-115.5 167.5t-72.5 186t-30 182.5q-29 9 -42 39.5t-13 52.5z" />
<glyph unicode="&#xe000;" horiz-adv-x="1433" d="M0 0v1434h1434v-1434h-1434z" />
</font>
</defs>
</svg>
